<svg xmlns="http://www.w3.org/2000/svg" xmlns:xlink="http://www.w3.org/1999/xlink" width="512" height="11624" viewBox="0 0 512 11624"><svg viewBox="0 0 129 129" width="129" height="129" id="arrow-down" y="0"><path d="M121.3 34.6c-1.6-1.6-4.2-1.6-5.8 0l-51 51.1-51.1-51.1c-1.6-1.6-4.2-1.6-5.8 0-1.6 1.6-1.6 4.2 0 5.8l53.9 53.9c.8.8 1.8 1.2 2.9 1.2 1 0 2.1-.4 2.9-1.2l53.9-53.9c1.7-1.6 1.7-4.2.1-5.8z"></path></svg><svg viewBox="0 0 477.175 477.175" width="477.175" height="477.175" id="arrow-left" y="129"><path d="M145.188 238.575l215.5-215.5c5.3-5.3 5.3-13.8 0-19.1s-13.8-5.3-19.1 0l-225.1 225.1c-5.3 5.3-5.3 13.8 0 19.1l225.1 225c2.6 2.6 6.1 4 9.5 4s6.9-1.3 9.5-4c5.3-5.3 5.3-13.8 0-19.1l-215.4-215.5z"></path></svg><svg viewBox="0 0 477.175 477.175" width="477.175" height="477.175" id="arrow-right" y="607"><path d="M360.731 229.075l-225.1-225.1c-5.3-5.3-13.8-5.3-19.1 0s-5.3 13.8 0 19.1l215.5 215.5-215.5 215.5c-5.3 5.3-5.3 13.8 0 19.1 2.6 2.6 6.1 4 9.5 4 3.4 0 6.9-1.3 9.5-4l225.1-225.1c5.3-5.2 5.3-13.8.1-19z"></path></svg><svg width="64" height="64" viewBox="0 0 64 64" id="arrow-up" y="1085"><path d="M3.352 48.296l28.56-28.328 28.58 28.347c.397.394.917.59 1.436.59.52 0 1.04-.196 1.436-.59a2.003 2.003 0 0 0 0-2.849l-29.98-29.735c-.2-.2-.494-.375-.757-.475a2.052 2.052 0 0 0-2.166.456L.479 45.447a2.003 2.003 0 0 0 0 2.849 2.045 2.045 0 0 0 2.873 0z"></path></svg><svg viewBox="0 0 60 60" width="60" height="60" id="attest" y="1149"><path d="M38.914 0H6.5v60h47V14.586L38.914 0zm.586 3.414L50.086 14H39.5V3.414zM8.5 58V2h29v14h14v42h-43z"></path><path d="M16.5 17h9a1 1 0 1 0 0-2h-9a1 1 0 1 0 0 2zm0 8h5a1 1 0 1 0 0-2h-5a1 1 0 1 0 0 2zm15 0h7a1 1 0 1 0 0-2h-7a1 1 0 1 0 0 2zm-5.71-1.7a.965.965 0 0 0-.29.7c0 .26.1.52.29.71.189.18.45.29.71.29s.52-.101.71-.3c.18-.181.29-.44.29-.7 0-.261-.11-.521-.29-.71-.38-.37-1.05-.37-1.42.01zM43.5 25c.26 0 .52-.11.71-.29.18-.19.29-.45.29-.71 0-.261-.11-.521-.29-.71-.38-.37-1.04-.37-1.42 0-.181.189-.29.449-.29.71 0 .26.109.52.29.71.189.18.45.29.71.29zm-15 6h-7a1 1 0 1 0 0 2h7a1 1 0 1 0 0-2zm-12 2c.26 0 .52-.11.71-.29a1.011 1.011 0 0 0 0-1.42c-.38-.37-1.04-.37-1.42 0a.986.986 0 0 0-.29.71c0 .26.109.52.29.71.189.18.45.29.71.29zm3.145 7.166c-2.19 1.14-2.927 3.321-3.196 5.582l-1.242-1.04c-.98-.821-2.402.586-1.414 1.415l2.806 2.351c.658.551 1.677.203 1.707-.707.073-2.166.175-4.742 2.348-5.873 1.142-.595.132-2.322-1.009-1.728zm6.65 3.989c-1.385.321-2.961 2.083-3.936.106-.569-1.154-2.295-.142-1.727 1.009.517 1.049 1.5 1.784 2.669 1.932.594.075 1.131-.009 1.688-.226.409-.159 1.937-1.308 2.267-.717.628 1.124 2.356.116 1.727-1.009-.537-.962-1.624-1.342-2.688-1.095zm20.45-9.642a.636.636 0 0 1-.363-.877 2.614 2.614 0 0 0-.518-3 2.615 2.615 0 0 0-2.999-.518.637.637 0 0 1-.878-.363C41.608 28.688 40.632 28 39.5 28s-2.108.688-2.487 1.755a.636.636 0 0 1-.877.363 2.618 2.618 0 0 0-3 .518 2.613 2.613 0 0 0-.518 2.999.641.641 0 0 1-.363.878C31.188 34.892 30.5 35.868 30.5 37s.688 2.108 1.755 2.487a.636.636 0 0 1 .363.877 2.614 2.614 0 0 0 .518 3c.387.386.862.63 1.364.728v12.322l5-5 5 5V44.091c.502-.097.978-.34 1.364-.727a2.613 2.613 0 0 0 .518-2.999.641.641 0 0 1 .363-.878C47.812 39.108 48.5 38.132 48.5 37s-.688-2.108-1.755-2.487zM39.5 48.586l-3 3v-7.758a.696.696 0 0 1 .156.04.621.621 0 0 1 .357.377C37.392 45.312 38.368 46 39.5 46s2.108-.688 2.487-1.755a.621.621 0 0 1 .486-.413l.026-.004v7.757L39.5 48.586zm6.575-10.983a2.64 2.64 0 0 0-1.5 3.622.611.611 0 0 1-.126.726.625.625 0 0 1-.561.17l-.22-.069c-.091-.041-.187-.063-.281-.092-.07-.022-.138-.052-.209-.069-.098-.022-.199-.028-.299-.039-.081-.009-.16-.026-.241-.028-.097-.002-.193.014-.289.022-.083.008-.167.006-.25.022a2.604 2.604 0 0 0-.52.154l-.002.001c-.044.018-.081.047-.124.067-.124.06-.249.119-.362.197a2.64 2.64 0 0 0-.373.319c-.013.013-.03.023-.043.037a2.643 2.643 0 0 0-.574.934c-.134.382-.465.423-.601.423s-.467-.041-.603-.425a2.634 2.634 0 0 0-.574-.934c-.01-.011-.023-.018-.034-.029a2.657 2.657 0 0 0-.383-.327c-.108-.075-.229-.131-.348-.189-.047-.023-.089-.055-.138-.075l-.001-.001c-.021-.009-.043-.011-.064-.019a2.635 2.635 0 0 0-.445-.132c-.122-.024-.243-.029-.365-.036-.045-.002-.09-.013-.135-.013l-.008.001a2.387 2.387 0 0 0-1.047.223l-.227.071a.623.623 0 0 1-.578-.166.612.612 0 0 1-.126-.727 2.642 2.642 0 0 0-1.5-3.621A.61.61 0 0 1 32.5 37c0-.136.041-.467.425-.603a2.64 2.64 0 0 0 1.5-3.622.611.611 0 0 1 .126-.726.614.614 0 0 1 .727-.126 2.637 2.637 0 0 0 3.621-1.5c.134-.382.465-.423.601-.423s.467.041.603.425a2.642 2.642 0 0 0 3.622 1.5.608.608 0 0 1 .726.126.612.612 0 0 1 .126.727 2.642 2.642 0 0 0 1.5 3.621c.382.134.423.465.423.601s-.041.467-.425.603z"></path></svg><svg viewBox="0 0 475.2 475.2" width="475.2" height="475.2" id="cancel" y="1209"><path d="M405.6 69.6C360.7 24.7 301.1 0 237.6 0s-123.1 24.7-168 69.6S0 174.1 0 237.6s24.7 123.1 69.6 168 104.5 69.6 168 69.6 123.1-24.7 168-69.6 69.6-104.5 69.6-168-24.7-123.1-69.6-168zm-19.1 316.9c-39.8 39.8-92.7 61.7-148.9 61.7s-109.1-21.9-148.9-61.7c-82.1-82.1-82.1-215.7 0-297.8C128.5 48.9 181.4 27 237.6 27s109.1 21.9 148.9 61.7c82.1 82.1 82.1 215.7 0 297.8z"></path><path d="M342.3 132.9c-5.3-5.3-13.8-5.3-19.1 0l-85.6 85.6-85.6-85.6c-5.3-5.3-13.8-5.3-19.1 0-5.3 5.3-5.3 13.8 0 19.1l85.6 85.6-85.6 85.6c-5.3 5.3-5.3 13.8 0 19.1 2.6 2.6 6.1 4 9.5 4s6.9-1.3 9.5-4l85.6-85.6 85.6 85.6c2.6 2.6 6.1 4 9.5 4 3.5 0 6.9-1.3 9.5-4 5.3-5.3 5.3-13.8 0-19.1l-85.4-85.6 85.6-85.6c5.3-5.3 5.3-13.8 0-19.1z"></path></svg><svg viewBox="0 0 60 60" width="60" height="60" id="case" y="1685"><path d="M60 19.132C60 14.647 56.353 11 51.868 11H44V8h-2V6.889A6.896 6.896 0 0 0 35.111 0H24.889A6.896 6.896 0 0 0 18 6.889V8h-2v3H8.132C3.648 11 0 14.647 0 19.132v10.226l.673.232h.001l.326.112V56.77A3.233 3.233 0 0 0 4.229 60H55.77A3.233 3.233 0 0 0 59 56.771V29.702l.326-.113h.001l.673-.232V19.132zM51.868 13A6.14 6.14 0 0 1 58 19.132v8.8l-.835.288-.165.056-4.308 1.485c-4.265 1.47-8.957 2.442-14.692 3.04V25h-3V13h16.868zM27 39h6v1.586L30.586 43h-1.172L27 40.586V39zm-2-2h-1V27h12v10H25zM36 8h-2v3h-8V8h-2V6.444a.562.562 0 0 1 .778-.521 13.571 13.571 0 0 0 10.445 0 .562.562 0 0 1 .777.521V8zm-9 5h6v12h-6V13zm15-2h-6v-1h6v1zM20 6.889A4.894 4.894 0 0 1 24.889 2h10.223A4.894 4.894 0 0 1 40 6.889V8h-2V6.444c0-.857-.425-1.653-1.138-2.13a2.549 2.549 0 0 0-2.403-.238 11.603 11.603 0 0 1-8.918 0 2.552 2.552 0 0 0-2.403.238A2.558 2.558 0 0 0 22 6.444V8h-2V6.889zM18 10h6v1h-6v-1zm-9.868 3H25v12h-3v7.828c-5.525-.508-9.975-1.439-14.693-3.066L3 28.276l-.525-.181L2 27.932v-8.8A6.14 6.14 0 0 1 8.132 13zM57 56.771c0 .677-.552 1.229-1.229 1.229H4.229A1.231 1.231 0 0 1 3 56.771V30.392l3.655 1.26C11.582 33.351 16.229 34.31 22 34.83V39h3v2.414L28.586 45h2.828L35 41.414V39h3v-4.194c5.979-.612 10.884-1.616 15.345-3.154L57 30.392v26.379z"></path><path d="M42 55h12v-6H42v6zm2-4h8v2h-8v-2zM27 34h2v1a1 1 0 1 0 2 0v-1h2v-6h-6v6zm2-4h2v2h-2v-2z"></path></svg><svg viewBox="0 0 26 26" width="26" height="26" id="checked" y="1745"><path d="M.3 14c-.2-.2-.3-.5-.3-.7s.1-.5.3-.7l1.4-1.4c.4-.4 1-.4 1.4 0l.1.1 5.5 5.9c.2.2.5.2.7 0L22.8 3.3h.1c.4-.4 1-.4 1.4 0l1.4 1.4c.4.4.4 1 0 1.4l-16 16.6c-.2.2-.4.3-.7.3-.3 0-.5-.1-.7-.3L.5 14.3.3 14z"></path></svg><svg viewBox="0 0 60 60" width="60" height="60" id="coins" y="1771"><path d="M59.989 21c-.099-1.711-2.134-3.048-6.204-4.068.137-.3.214-.612.215-.936V9h-.017C53.625 3.172 29.743 3 27 3S.375 3.172.017 9H0v6.999c.005 1.9 2.457 3.387 6.105 4.494-.05.166-.08.335-.09.507H6v6.987C2.07 28.999.107 30.317.01 32H0v6.999c.003 1.323 1.196 2.445 3.148 3.38-.074.203-.12.41-.133.622H3V50c.008 3.326 7.497 5.391 15.818 6.355.061.012.117.037.182.037.019 0 .035-.01.054-.011 1.604.181 3.234.322 4.847.423.034.004.064.02.099.02.019 0 .034-.01.052-.011A99.33 99.33 0 0 0 30 57c1.885 0 3.9-.063 5.948-.188.018.001.034.011.052.011.035 0 .065-.017.099-.02a96.863 96.863 0 0 0 4.847-.423c.019 0 .035.01.054.01.065 0 .121-.025.182-.037 8.321-.964 15.809-3.03 15.818-6.357V43h-.016c-.07-1.226-1.115-2.249-3.179-3.104.126-.289.195-.589.195-.9V32.46c3.59-1.104 5.995-2.581 6-4.464V21h-.011zm-8.097 18.321l-.341.299c-.525.463-1.4.93-2.551 1.38v-4.768c1.189-.414 2.201-.873 3-1.376v4.138a.636.636 0 0 1-.108.327zm-22.366 4.647c-.146.004-.293.006-.44.009-.357.007-.723.009-1.085.012v-4.995l.825-.012.159-.003c1.007-.019 2.014-.05 3.016-.096v4.993a88.817 88.817 0 0 1-2.475.092zm-4.367.014c-.458-.008-.914-.019-1.367-.033l-.168-.006c-.545-.018-1.086-.041-1.623-.067v-4.992a104.147 104.147 0 0 0 3.174.099l.825.012v4.998c-.194-.002-.388-.002-.581-.005-.088-.002-.173-.005-.26-.006zm-18.062-2.28A3.537 3.537 0 0 0 7 41.674v-4.831c.934.252 1.938.482 3 .691v4.881c-.918-.195-1.765-.4-2.536-.61-.122-.035-.248-.068-.367-.103zm21.078 8.281l.825.012v4.999a101.034 101.034 0 0 1-4-.116v-4.993a104.147 104.147 0 0 0 3.175.098zm3.809-.003c1.007-.019 2.014-.05 3.016-.096v4.993c-1.284.063-2.618.103-4 .116v-4.999a113.474 113.474 0 0 0 .984-.014zM40 49.528v4.966c-.961.101-1.961.19-3 .263V49.77a96.415 96.415 0 0 0 3-.242zm2-.216a73.794 73.794 0 0 0 3-.422v4.91c-.942.166-1.943.319-3 .458v-4.946zm5-.779a44.704 44.704 0 0 0 3-.691v4.831c-.891.257-1.894.506-3 .741v-4.881zm-34 0v4.881a43.562 43.562 0 0 1-3-.741v-4.831c.934.252 1.938.483 3 .691zm2 .358c.968.157 1.969.298 3 .422v4.946a69.655 69.655 0 0 1-3-.458v-4.91zm5 .637a99.56 99.56 0 0 0 3 .243v4.987a87.083 87.083 0 0 1-3-.263v-4.967zm-2.481-5.98l-.304-.031-.215-.023v-4.965a99.56 99.56 0 0 0 3 .243v4.983a96.79 96.79 0 0 1-2.481-.207zM15 38.312v4.946a69.655 69.655 0 0 1-3-.458v-4.91c.968.157 1.969.299 3 .422zm19.666 5.396l-.666.05v-4.987a96.392 96.392 0 0 0 3-.243v4.966a81.624 81.624 0 0 1-2.334.214zm4.334-.45v-4.946a73.794 73.794 0 0 0 3-.422v4.91c-.942.166-1.943.32-3 .458zm5-5.725a44.704 44.704 0 0 0 3-.691v4.831c-.891.257-1.894.506-3 .741v-4.881zm-13.675-4.568a95.164 95.164 0 0 1-2.209-.083L28 32.877v-4.993a104.147 104.147 0 0 0 3.174.099l.825.012v4.993c-.487-.005-.978-.007-1.453-.018l-.221-.005zM7 18.674v-4.831c.934.252 1.938.482 3 .691v4.881l-.37-.078A42.126 42.126 0 0 1 7 18.674zm18.175-2.691l.825.012v4.993a99.16 99.16 0 0 1-4-.114v-4.989a104.147 104.147 0 0 0 3.175.098zm3.809-.003c1.007-.019 2.014-.05 3.016-.096v4.989c-.17.008-.333.02-.504.028l-.043.002c-.671.03-1.355.052-2.048.068l-.324.007c-.356.007-.72.008-1.081.012v-4.995l.825-.012.159-.003zm22.787.502l-.028-.006-.364.283c-.528.411-1.339.827-2.379 1.229v-4.757c1.189-.414 2.201-.873 3-1.376v4.138c0 .152-.08.316-.229.489zM39 20.252v-4.94a73.794 73.794 0 0 0 3-.422v4.902c-.948.168-1.946.322-3 .46zm5-.845v-4.873a44.704 44.704 0 0 0 3-.691v4.82c-.896.261-1.905.51-3 .744zm-7-3.879v4.96c-.966.102-1.966.191-3 .265v-4.982a99.56 99.56 0 0 0 3-.243zM17 20.49v-4.962a99.56 99.56 0 0 0 3 .243v4.978a90.68 90.68 0 0 1-3-.259zm-2-5.178v4.941c-.198-.026-.404-.047-.6-.074l-.376-.055a72.39 72.39 0 0 1-1.697-.265L12 19.801v-4.91c.968.156 1.969.298 3 .421zm10.752 17.427l-.405-.03c-.64-.05-1.265-.105-1.875-.166l-.392-.04c-.027-.003-.053-.007-.08-.009v-4.966a99.56 99.56 0 0 0 3 .243v4.984l-.248-.016zm-6.607-.747c-.396-.063-.768-.131-1.145-.197v-4.904c.968.157 1.969.298 3 .422v4.946a76.718 76.718 0 0 1-1.855-.267zM16 26.533v4.873a42.01 42.01 0 0 1-3-.751v-4.813c.934.252 1.938.483 3 .691zm-5-1.302v4.751c-1.572-.607-2.586-1.227-2.916-1.779l-.067-.112c-.006-.031-.016-.064-.017-.095v-4.141c.799.503 1.811.962 3 1.376zm23.984 2.749c1.007-.019 2.014-.05 3.016-.096v4.988c-1.314.065-2.65.101-4 .115v-4.992l.825-.012.159-.003zm12.923 3.837a64.384 64.384 0 0 1-2.133.336c-.253.036-.516.067-.773.1v-4.941a73.794 73.794 0 0 0 3-.422v4.91l-.094.017zm-6.771.854c-.373.031-.758.051-1.136.078v-4.978a96.392 96.392 0 0 0 3-.243v4.961c-.581.061-1.161.122-1.758.172l-.106.01zm11.428-1.875a46.66 46.66 0 0 1-2.326.568c-.077.017-.159.032-.237.049v-4.879a44.704 44.704 0 0 0 3-.691v4.831l-.437.122zm5.425-9.731c-.092.679-1.631 1.582-4.378 2.431-3.538 1.093-9.074 2.094-16.09 2.404-.359.015-.717.03-1.083.042-.299.01-.599.019-.904.027-.828.018-1.668.031-2.534.031s-1.706-.013-2.534-.032c-.304-.007-.604-.017-.904-.027-.367-.011-.725-.027-1.083-.042-7.016-.31-12.553-1.311-16.09-2.404-2.725-.842-4.261-1.738-4.375-2.414.005-.019.005-.035.017-.059.068.017.144.031.213.048.391.093.792.183 1.2.269 1.987.428 4.189.779 6.535 1.047.008 0 .014.004.021.004l.005-.001c1.598.182 3.256.325 4.958.426.013 0 .024.007.037.007.007 0 .012-.004.019-.004a102.259 102.259 0 0 0 7.587.166c7.266-.112 14-.976 18.686-2.315.216-.061.427-.124.635-.187.127-.039.257-.077.38-.116.362-.116.709-.235 1.044-.359l.171-.066c.283-.107.555-.218.815-.331.075-.033.152-.065.225-.098.277-.125.545-.253.793-.386.112-.059.209-.12.314-.18a8.8 8.8 0 0 0 .351-.21c.063-.04.138-.078.198-.118 4.477.971 5.657 2.033 5.771 2.447zM27 5c16.489 0 24.829 2.596 24.985 4.086-.121.676-1.656 1.569-4.374 2.409-3.538 1.093-9.074 2.094-16.09 2.404-.359.015-.717.03-1.083.042A109.893 109.893 0 0 1 27 14c-.866 0-1.706-.013-2.534-.032-.304-.007-.604-.017-.904-.027-.367-.011-.725-.027-1.083-.042-7.016-.31-12.553-1.311-16.09-2.404-2.719-.84-4.253-1.733-4.374-2.409C2.171 7.596 10.511 5 27 5zM2 15.996v-4.141c.799.503 1.811.962 3 1.376v4.788c-1.945-.729-2.998-1.46-3-2.023zm4.844 13.839c.015.016.038.03.053.046 1.369 1.382 4.204 2.468 7.733 3.278l.249.056c.259.058.522.115.788.17 3.241.69 7.11 1.189 11.325 1.436l.007.001.004-.001c1.354.079 2.739.134 4.153.158a89.072 89.072 0 0 0 3.962-.004c1.308-.027 2.597-.081 3.868-.155.005 0 .009.003.014.003.009 0 .016-.005.025-.005 4.226-.249 8.191-.753 11.544-1.478-.726.38-1.72.773-2.958 1.156-3.735 1.154-9.7 2.205-17.281 2.449-.225.007-.447.015-.675.021-.245.006-.494.01-.743.015-.629.01-1.262.019-1.912.019-.866 0-1.706-.013-2.534-.032-.304-.007-.604-.017-.904-.027-.367-.011-.725-.027-1.083-.042-7.016-.31-12.553-1.311-16.09-2.404-2.75-.85-4.289-1.754-4.378-2.433.111-.376 1.122-1.317 4.833-2.227zM2 38.996v-4.141c.799.503 1.811.962 3 1.376V41l-.571-.222-.012.012C2.847 40.139 2.002 39.5 2 38.996zm3 11v-4.141c.799.503 1.811.962 3 1.376v4.788c-1.945-.729-2.998-1.46-3-2.023zm47 2.023v-4.787c1.189-.414 2.201-.873 3-1.376v4.138c-.001.563-1.055 1.295-3 2.025zm2.987-8.942c-.109.677-1.645 1.575-4.376 2.419-3.538 1.093-9.074 2.094-16.09 2.404-.359.015-.717.03-1.083.042-.299.01-.599.019-.904.027-.828.018-1.668.031-2.534.031-.866 0-1.707-.013-2.536-.032-.301-.007-.598-.017-.895-.027-.369-.012-.729-.027-1.09-.042-7.016-.31-12.552-1.311-16.09-2.404-2.645-.817-4.173-1.685-4.365-2.355a29.508 29.508 0 0 0 2.173.663c.16.043.324.084.488.126 3.642.933 8.291 1.594 13.31 1.891l.005.001.003-.001c1.55.092 3.133.149 4.733.168.426.008.849.012 1.264.012.551 0 1.115-.007 1.686-.017a100.08 100.08 0 0 0 4.307-.162l.008.002c.005 0 .008-.003.013-.003a92.054 92.054 0 0 0 4.97-.433c.006 0 .011.003.017.003.022 0 .04-.011.062-.013a72.52 72.52 0 0 0 6.186-.976c2.953-.606 5.509-1.391 7.263-2.364.096-.052.186-.106.277-.159.111-.066.217-.133.32-.201.096-.062.207-.122.295-.185 1.974.704 2.518 1.334 2.583 1.585zM55 30.019v-4.787c1.189-.414 2.201-.873 3-1.376v4.138c-.001.563-1.055 1.295-3 2.025z"></path></svg><svg viewBox="0 0 512 512" width="512" height="512" id="doc" y="1831"><path d="M318.168 0H10.66v512h383.992V76.5L318.168 0zm1.828 32l42.656 42.664h-42.656V32zm53.344 458.656H31.996V21.336h266.656V96h74.688v394.656z"></path><path d="M319.996 373.344h-64c-5.891 0-10.664 4.766-10.664 10.656s4.773 10.656 10.664 10.656h64c5.891 0 10.656-4.766 10.656-10.656s-4.765-10.656-10.656-10.656zm0-181.344H85.332c-5.898 0-10.672 4.773-10.672 10.664s4.773 10.672 10.672 10.672h234.664c5.891 0 10.656-4.781 10.656-10.672S325.887 192 319.996 192zm0 64H85.332c-5.898 0-10.672 4.773-10.672 10.664 0 5.898 4.773 10.68 10.672 10.68h234.664c5.891 0 10.656-4.781 10.656-10.68 0-5.891-4.765-10.664-10.656-10.664zM202.66 128H85.332c-5.898 0-10.672 4.773-10.672 10.664s4.774 10.672 10.672 10.672H202.66c5.891 0 10.672-4.781 10.672-10.672S208.551 128 202.66 128zm-74.664 192c-29.453 0-53.336 23.875-53.336 53.344 0 17.438 8.383 32.938 21.336 42.656v53.344l32-10.688 32 10.688V416c12.953-9.719 21.336-25.219 21.336-42.656 0-29.469-23.883-53.344-53.336-53.344zm10.664 119.734l-3.922-1.297-6.742-2.25-6.75 2.25-3.914 1.297v-14.141c3.445.703 7.008 1.062 10.664 1.062s7.219-.359 10.664-1.062v14.141zm-10.664-34.39c-17.648 0-32-14.375-32-32 0-17.656 14.352-32 32-32s32 14.344 32 32c0 17.625-14.351 32-32 32zM501.34 128c0-23.57-19.109-42.672-42.688-42.672-23.562 0-42.656 19.102-42.656 42.672v288h13.234l-13.234 46.219 42.656 28.438 42.688-28.438L488.09 416h13.25V128zm-42.688 337.031l-17.859-11.906L451.418 416h14.484l10.625 37.125-17.875 11.906zm21.344-70.375H437.34V128c0-11.766 9.562-21.336 21.312-21.336 11.781 0 21.344 9.57 21.344 21.336v266.656z"></path><path d="M127.996 362.656c-5.891 0-10.664 4.781-10.664 10.688 0 5.875 4.773 10.656 10.664 10.656s10.664-4.781 10.664-10.656c0-5.906-4.773-10.688-10.664-10.688z"></path></svg><svg viewBox="0 0 59 59" width="59" height="59" id="garbage" y="2343"><path d="M29.5 51a1 1 0 0 0 1-1V17a1 1 0 1 0-2 0v33a1 1 0 0 0 1 1zm-10 0a1 1 0 0 0 1-1V17a1 1 0 1 0-2 0v33a1 1 0 0 0 1 1zm20 0a1 1 0 0 0 1-1V17a1 1 0 1 0-2 0v33a1 1 0 0 0 1 1z"></path><path d="M52.5 6H38.456c-.11-1.25-.495-3.358-1.813-4.711C35.809.434 34.751 0 33.499 0H23.5c-1.252 0-2.31.434-3.144 1.289C19.038 2.642 18.653 4.75 18.543 6H6.5a1 1 0 1 0 0 2h2.041l1.915 46.021C10.493 55.743 11.565 59 15.364 59h28.272c3.799 0 4.871-3.257 4.907-4.958L50.459 8H52.5a1 1 0 1 0 0-2zM21.792 2.681C22.24 2.223 22.799 2 23.5 2h9.999c.701 0 1.26.223 1.708.681.805.823 1.128 2.271 1.24 3.319H20.553c.112-1.048.435-2.496 1.239-3.319zm24.752 51.298C46.538 54.288 46.4 57 43.636 57H15.364c-2.734 0-2.898-2.717-2.909-3.042L10.542 8h37.915l-1.913 45.979z"></path></svg><svg viewBox="0 0 264.355 264.355" width="512" height="512" id="hand" y="2402"><path d="M259.081 76.652L205.269 22.84c-3.407-3.407-7.936-5.283-12.754-5.283s-9.347 1.876-12.753 5.283l-12.646 12.645a17.908 17.908 0 0 0-4.203 6.67l-59.168-10.593-.013-.002c-26.604-5.281-52.579 12.015-57.944 38.622l-2.729 13.537c-3.014 14.949 6.697 29.562 21.646 32.576 14.95 3.012 29.563-6.697 32.577-21.646l1.668-8.278 26.533 2.32 69.29 69.29 12.558 12.558a6.53 6.53 0 0 1 0 9.224 6.53 6.53 0 0 1-9.223 0l-33.639-33.639a6 6 0 0 0-8.485 8.485l33.639 33.639a6.48 6.48 0 0 1 1.91 4.612 6.477 6.477 0 0 1-1.91 4.611 6.53 6.53 0 0 1-9.223 0l-33.639-33.639a6 6 0 0 0-8.485 8.485l33.639 33.639a6.529 6.529 0 0 1 0 9.223 6.479 6.479 0 0 1-4.611 1.91 6.48 6.48 0 0 1-4.612-1.91l-33.639-33.639a6 6 0 0 0-8.485 8.485l33.639 33.639a6.53 6.53 0 0 1 0 9.224 6.53 6.53 0 0 1-9.223 0L25.961 113.867 10.243 98.149a6 6 0 0 0-8.485 8.485l15.718 15.718 17.105 17.105-9.429 9.429a16.24 16.24 0 0 0-4.788 11.559c0 4.367 1.7 8.472 4.788 11.559l3.077 3.077a16.225 16.225 0 0 0 9.925 4.707 16.22 16.22 0 0 0 4.707 9.924l3.077 3.078a16.264 16.264 0 0 0 9.923 4.695 16.218 16.218 0 0 0 4.709 9.936l3.077 3.077a16.225 16.225 0 0 0 9.925 4.707 16.225 16.225 0 0 0 4.707 9.925l3.077 3.077c3.187 3.187 7.373 4.78 11.559 4.78s8.372-1.593 11.559-4.78l9.429-9.429 22.595 22.595c3.499 3.499 8.15 5.425 13.097 5.425s9.599-1.927 13.097-5.425c3.314-3.314 5.196-7.667 5.387-12.321 4.655-.191 9.007-2.073 12.322-5.387 3.416-3.416 5.195-7.845 5.38-12.329 4.483-.185 8.913-1.964 12.328-5.379 3.416-3.416 5.195-7.845 5.38-12.329 4.484-.185 8.914-1.964 12.329-5.38 7.222-7.222 7.222-18.972 0-26.194l-8.315-8.315 30.423-30.423 21.156-21.156c7.031-7.033 7.031-18.476-.001-25.508zM33.637 163.518a4.351 4.351 0 0 1 0-6.147l8.842-8.842 9.224 9.224-8.842 8.842a4.352 4.352 0 0 1-6.147 0l-3.077-3.077zm17.709 17.709a4.35 4.35 0 0 1 0-6.146l8.842-8.842 9.224 9.224-8.841 8.842a4.352 4.352 0 0 1-6.147 0l-3.078-3.078zm17.708 17.709c-.821-.821-1.273-1.913-1.273-3.073s.452-2.252 1.273-3.073l8.842-8.842 9.223 9.223-8.842 8.842a4.352 4.352 0 0 1-6.146 0l-3.077-3.077zm26.933 20.786a4.352 4.352 0 0 1-6.147 0l-3.077-3.077a4.351 4.351 0 0 1 0-6.147l8.842-8.842 9.224 9.224-8.842 8.842zm103.029-74.469l-66.592-66.592a5.992 5.992 0 0 0-3.72-1.734L94.651 73.95a6.002 6.002 0 0 0-6.404 4.792l-2.729 13.537c-1.706 8.462-9.974 13.958-18.442 12.253a15.553 15.553 0 0 1-9.946-6.683 15.553 15.553 0 0 1-2.307-11.759l2.729-13.536c4.066-20.169 23.774-33.275 43.951-29.204.042.008.085.017.128.024l58.306 10.439 7.179 7.179 58.081 58.081-26.181 26.18zm51.579-51.579l-16.914 16.914L175.6 52.507a5.998 5.998 0 0 1-1.768-4.269 6 6 0 0 1 1.768-4.269l12.646-12.646c1.14-1.14 2.656-1.768 4.268-1.768s3.128.628 4.269 1.768l53.812 53.812a5.998 5.998 0 0 1 1.768 4.269 6 6 0 0 1-1.768 4.27z"></path><circle cx="236.071" cy="91.787" r="6"></circle></svg><svg viewBox="0 0 264.355 264.355" width="264.355" height="264.355" id="handshake" y="2914"><path d="M259.081 76.652L205.269 22.84c-3.407-3.407-7.936-5.283-12.754-5.283s-9.347 1.876-12.753 5.283l-12.646 12.645a17.908 17.908 0 0 0-4.203 6.67l-59.168-10.593-.013-.002c-26.604-5.281-52.579 12.015-57.944 38.622l-2.729 13.537c-3.014 14.949 6.697 29.562 21.646 32.576 14.95 3.012 29.563-6.697 32.577-21.646l1.668-8.278 26.533 2.32 69.29 69.29 12.558 12.558a6.53 6.53 0 0 1 0 9.224 6.53 6.53 0 0 1-9.223 0l-33.639-33.639a6 6 0 0 0-8.485 8.485l33.639 33.639a6.48 6.48 0 0 1 1.91 4.612 6.477 6.477 0 0 1-1.91 4.611 6.53 6.53 0 0 1-9.223 0l-33.639-33.639a6 6 0 0 0-8.485 8.485l33.639 33.639a6.529 6.529 0 0 1 0 9.223 6.479 6.479 0 0 1-4.611 1.91 6.48 6.48 0 0 1-4.612-1.91l-33.639-33.639a6 6 0 0 0-8.485 8.485l33.639 33.639a6.53 6.53 0 0 1 0 9.224 6.53 6.53 0 0 1-9.223 0L25.961 113.867 10.243 98.149a6 6 0 0 0-8.485 8.485l15.718 15.718 17.105 17.105-9.429 9.429a16.24 16.24 0 0 0-4.788 11.559c0 4.367 1.7 8.472 4.788 11.559l3.077 3.077a16.225 16.225 0 0 0 9.925 4.707 16.22 16.22 0 0 0 4.707 9.924l3.077 3.078a16.264 16.264 0 0 0 9.923 4.695 16.218 16.218 0 0 0 4.709 9.936l3.077 3.077a16.225 16.225 0 0 0 9.925 4.707 16.225 16.225 0 0 0 4.707 9.925l3.077 3.077c3.187 3.187 7.373 4.78 11.559 4.78s8.372-1.593 11.559-4.78l9.429-9.429 22.595 22.595c3.499 3.499 8.15 5.425 13.097 5.425s9.599-1.927 13.097-5.425c3.314-3.314 5.196-7.667 5.387-12.321 4.655-.191 9.007-2.073 12.322-5.387 3.416-3.416 5.195-7.845 5.38-12.329 4.483-.185 8.913-1.964 12.328-5.379 3.416-3.416 5.195-7.845 5.38-12.329 4.484-.185 8.914-1.964 12.329-5.38 7.222-7.222 7.222-18.972 0-26.194l-8.315-8.315 30.423-30.423 21.156-21.156c7.031-7.033 7.031-18.476-.001-25.508zM33.637 163.518a4.351 4.351 0 0 1 0-6.147l8.842-8.842 9.224 9.224-8.842 8.842a4.352 4.352 0 0 1-6.147 0l-3.077-3.077zm17.709 17.709a4.35 4.35 0 0 1 0-6.146l8.842-8.842 9.224 9.224-8.841 8.842a4.352 4.352 0 0 1-6.147 0l-3.078-3.078zm17.708 17.709c-.821-.821-1.273-1.913-1.273-3.073s.452-2.252 1.273-3.073l8.842-8.842 9.223 9.223-8.842 8.842a4.352 4.352 0 0 1-6.146 0l-3.077-3.077zm26.933 20.786a4.352 4.352 0 0 1-6.147 0l-3.077-3.077a4.351 4.351 0 0 1 0-6.147l8.842-8.842 9.224 9.224-8.842 8.842zm103.029-74.469l-66.592-66.592a5.992 5.992 0 0 0-3.72-1.734L94.651 73.95a6.002 6.002 0 0 0-6.404 4.792l-2.729 13.537c-1.706 8.462-9.974 13.958-18.442 12.253a15.553 15.553 0 0 1-9.946-6.683 15.553 15.553 0 0 1-2.307-11.759l2.729-13.536c4.066-20.169 23.774-33.275 43.951-29.204.042.008.085.017.128.024l58.306 10.439 7.179 7.179 58.081 58.081-26.181 26.18zm51.579-51.579l-16.914 16.914L175.6 52.507a5.998 5.998 0 0 1-1.768-4.269 6 6 0 0 1 1.768-4.269l12.646-12.646c1.14-1.14 2.656-1.768 4.268-1.768s3.128.628 4.269 1.768l53.812 53.812a5.998 5.998 0 0 1 1.768 4.269 6 6 0 0 1-1.768 4.27z"></path><circle cx="236.071" cy="91.787" r="6"></circle></svg><svg viewBox="0 0 471.701 471.701" width="471.701" height="471.701" id="heart" y="3179"><path d="M433.601 67.001c-24.7-24.7-57.4-38.2-92.3-38.2s-67.7 13.6-92.4 38.3l-12.9 12.9-13.1-13.1c-24.7-24.7-57.6-38.4-92.5-38.4-34.8 0-67.6 13.6-92.2 38.2-24.7 24.7-38.3 57.5-38.2 92.4 0 34.9 13.7 67.6 38.4 92.3l187.8 187.8c2.6 2.6 6.1 4 9.5 4 3.4 0 6.9-1.3 9.5-3.9l188.2-187.5c24.7-24.7 38.3-57.5 38.3-92.4.1-34.9-13.4-67.7-38.1-92.4zm-19.2 165.7l-178.7 178-178.3-178.3c-19.6-19.6-30.4-45.6-30.4-73.3s10.7-53.7 30.3-73.2c19.5-19.5 45.5-30.3 73.1-30.3 27.7 0 53.8 10.8 73.4 30.4l22.6 22.6c5.3 5.3 13.8 5.3 19.1 0l22.4-22.4c19.6-19.6 45.7-30.4 73.3-30.4 27.6 0 53.6 10.8 73.2 30.3 19.6 19.6 30.3 45.6 30.3 73.3.1 27.7-10.7 53.7-30.3 73.3z"></path></svg><svg viewBox="0 0 486.196 486.196" width="486.196" height="486.196" id="house" y="3651"><path d="M481.708 220.456l-228.8-204.6c-.4-.4-.8-.7-1.3-1-5-4.8-13-5-18.3-.3l-228.8 204.6c-5.6 5-6 13.5-1.1 19.1 2.7 3 6.4 4.5 10.1 4.5 3.2 0 6.4-1.1 9-3.4l41.2-36.9v238.6c0 18.7 15.2 34 34 34h72.2c17.6 0 31.9-14.3 31.9-31.9v-121.3c0-2.7 2.2-4.9 4.9-4.9h72.9c2.7 0 4.9 2.2 4.9 4.9v121.3c0 17.6 14.3 31.9 31.9 31.9h72.2c19 0 34-18.7 34-42.6v-228.7l41.2 36.9c2.6 2.3 5.8 3.4 9 3.4 3.7 0 7.4-1.5 10.1-4.5 4.8-5.6 4.3-14.1-1.2-19.1zm-86.2 66.7v145.1c0 9.7-4.8 15.6-7 15.6h-72.2c-2.7 0-4.9-2.2-4.9-4.9v-121.1c0-17.6-14.3-31.9-31.9-31.9h-72.9c-17.6 0-31.9 14.3-31.9 31.9v121.3c0 2.7-2.2 4.9-4.9 4.9h-72.2c-3.8 0-7-3.1-7-7v-262.8l151.8-135.6 153.1 136.9v107.6z"></path></svg><svg viewBox="0 0 490.4 490.4" width="490.4" height="490.4" id="interface" y="4138"><path d="M245.2 490.4c135.2 0 245.2-110 245.2-245.2S380.4 0 245.2 0 0 110 0 245.2s110 245.2 245.2 245.2zm0-465.9c121.7 0 220.7 99 220.7 220.7s-99 220.7-220.7 220.7-220.7-99-220.7-220.7 99-220.7 220.7-220.7z"></path><path d="M206.5 349.6c2.3 2.3 5.4 3.6 8.7 3.6 3.2 0 6.3-1.3 8.6-3.6l147.5-146.7c2.3-2.3 3.6-5.4 3.6-8.7 0-3.2-1.3-6.4-3.6-8.7l-44.6-44.8c-4.8-4.8-12.5-4.8-17.3-.1l-94 93.5-34.2-34.4c-2.3-2.3-5.4-3.6-8.7-3.6-3.2 0-6.3 1.3-8.6 3.6l-44.8 44.6c-2.3 2.3-3.6 5.4-3.6 8.7 0 3.2 1.3 6.4 3.6 8.7l87.4 87.9zm-34-123.9l34.3 34.5c4.8 4.8 12.5 4.8 17.3.1l94-93.5 27.3 27.4-130.1 129.4-70.2-70.6 27.4-27.3z"></path></svg><svg viewBox="0 0 490.2 490.2" width="490.2" height="490.2" id="like" y="4629"><path d="M490.1 234.464c0-37.6-30.6-68.3-68.3-68.3H316.2v-76.1c0-32.2-9.4-55.4-28-69-29.4-21.6-69.8-9.3-71.5-8.7-5.1 1.6-8.6 6.3-8.6 11.7v85.5c0 67.3-78.1 90.2-81.4 91.2-1 .3-1.9.6-2.7 1.1-5.8-11.6-17.8-19.6-31.6-19.6H35.2c-19.4 0-35.2 15.8-35.2 35.2v207.9c0 19.4 15.8 35.2 35.2 35.2h33.1c6.8 0 12.3-5.5 12.3-12.3s-5.6-12.2-12.3-12.2H35.2c-5.9 0-10.7-4.8-10.7-10.7v-207.9c0-5.9 4.8-10.7 10.7-10.7h57.3c5.9 0 10.7 4.8 10.7 10.7v196.1c0 37.6 30.6 68.3 68.3 68.3h209.2c46.4 0 75.9-24.3 81.1-66.3l28.2-177c.1-.6.2-1.3.2-1.9v-2.2h-.1zm-24.5 1.1l-28.1 176.5c-3.7 30-22.8 45.3-56.8 45.3H171.5c-24.1 0-43.8-19.6-43.8-43.8v-189.1c1.8.4 3.7.3 5.6-.2 4.1-1.1 99.3-28.7 99.3-114.8v-75.6c10.4-1.6 28.2-2.5 41.1 6.9 11.9 8.8 18 25.3 18 49.3v88.4c0 6.8 5.5 12.3 12.3 12.3h117.9c24.1 0 43.8 19.6 43.8 43.8v1h-.1z"></path></svg><svg viewBox="0 0 451 451" width="451" height="451" id="magnifying-glass" y="5120"><path d="M447.05 428l-109.6-109.6c29.4-33.8 47.2-77.9 47.2-126.1C384.65 86.2 298.35 0 192.35 0 86.25 0 .05 86.3.05 192.3s86.3 192.3 192.3 192.3c48.2 0 92.3-17.8 126.1-47.2L428.05 447c2.6 2.6 6.1 4 9.5 4s6.9-1.3 9.5-4c5.2-5.2 5.2-13.8 0-19zM26.95 192.3c0-91.2 74.2-165.3 165.3-165.3 91.2 0 165.3 74.2 165.3 165.3s-74.1 165.4-165.3 165.4c-91.1 0-165.3-74.2-165.3-165.4z"></path></svg><svg viewBox="0 0 483.3 483.3" width="483.3" height="483.3" id="mail" y="5571"><path d="M424.3 57.75H59.1c-32.6 0-59.1 26.5-59.1 59.1v249.6c0 32.6 26.5 59.1 59.1 59.1h365.1c32.6 0 59.1-26.5 59.1-59.1v-249.5c.1-32.6-26.4-59.2-59-59.2zm32.1 308.7c0 17.7-14.4 32.1-32.1 32.1H59.1c-17.7 0-32.1-14.4-32.1-32.1v-249.5c0-17.7 14.4-32.1 32.1-32.1h365.1c17.7 0 32.1 14.4 32.1 32.1v249.5h.1z"></path><path d="M304.8 238.55l118.2-106c5.5-5 6-13.5 1-19.1-5-5.5-13.5-6-19.1-1l-163 146.3-31.8-28.4c-.1-.1-.2-.2-.2-.3-.7-.7-1.4-1.3-2.2-1.9L78.3 112.35c-5.6-5-14.1-4.5-19.1 1.1-5 5.6-4.5 14.1 1.1 19.1l119.6 106.9-119.1 111.5c-5.4 5.1-5.7 13.6-.6 19.1 2.7 2.8 6.3 4.3 9.9 4.3 3.3 0 6.6-1.2 9.2-3.6l120.9-113.1 32.8 29.3c2.6 2.3 5.8 3.4 9 3.4s6.5-1.2 9-3.5l33.7-30.2 120.2 114.2c2.6 2.5 6 3.7 9.3 3.7 3.6 0 7.1-1.4 9.8-4.2 5.1-5.4 4.9-14-.5-19.1l-118.7-112.7z"></path></svg><svg width="459" height="459" viewBox="0 0 459 459" id="menu" y="6055"><path d="M0 382.5h459v-51H0v51zM0 255h459v-51H0v51zM0 76.5v51h459v-51H0z"></path></svg><svg width="512" height="512" viewBox="0 0 95.44 95.441" id="metro" y="6514"><path d="M47.721 11.712C21.366 11.712 0 33.281 0 59.888c0 14.427 6.226 23.836 6.226 23.836l82.97.004s6.244-10.283 6.244-23.841c0-26.606-21.366-48.175-47.719-48.175zm37.975 66.147l-75.799-.033s-4.039-7.649-4.039-18.09c0-23.32 18.814-42.226 42.023-42.226 23.208 0 42.023 18.905 42.023 42.226.001 10.559-4.208 18.123-4.208 18.123z"></path><path d="M61.207 24.505l-.599-.001-12.729 24.943-13.187-25.156-18.055 45.445h-4.666v3.65h25.562v-3.65h-5.072l5.072-14.203 10.346 17.853 9.941-17.853 5.071 14.203H57.82v3.65h25.358v-3.65h-4.393z"></path></svg><svg viewBox="0 0 59 59" width="59" height="59" id="money" y="7026"><path d="M30.5 10c1.93 0 3.5-1.57 3.5-3.5S32.43 3 30.5 3 27 4.57 27 6.5s1.57 3.5 3.5 3.5zm0-5c.827 0 1.5.673 1.5 1.5S31.327 8 30.5 8 29 7.327 29 6.5 29.673 5 30.5 5zm-21 5c1.93 0 3.5-1.57 3.5-3.5S11.43 3 9.5 3 6 4.57 6 6.5 7.57 10 9.5 10zm0-5c.827 0 1.5.673 1.5 1.5S10.327 8 9.5 8 8 7.327 8 6.5 8.673 5 9.5 5zm0 43C7.57 48 6 49.57 6 51.5S7.57 55 9.5 55s3.5-1.57 3.5-3.5S11.43 48 9.5 48zm0 5c-.827 0-1.5-.673-1.5-1.5S8.673 50 9.5 50s1.5.673 1.5 1.5-.673 1.5-1.5 1.5z"></path><path d="M46 17.016V0H3v58h24.039c1.584.632 3.444 1 5.461 1 2.488 0 4.742-.554 6.523-1.484C40.865 58.473 43.136 59 45.5 59c5.888 0 10.5-3.075 10.5-7V24c0-3.813-4.355-6.814-10-6.984zM54 24c0 2.71-3.893 5-8.5 5S37 26.71 37 24c0-.167.015-.332.044-.495.008-.047.025-.093.036-.139.026-.116.053-.233.093-.347.018-.051.045-.101.066-.152.044-.107.087-.215.144-.32.031-.058.071-.113.106-.17.057-.095.113-.19.18-.282.054-.074.118-.146.179-.219.058-.071.112-.142.176-.211.098-.106.208-.209.32-.311.035-.032.066-.066.102-.097.309-.27.665-.526 1.067-.764a9.241 9.241 0 0 1 1.254-.615l.081-.031c.44-.174.902-.325 1.39-.447.017-.004.035-.007.052-.012a12.65 12.65 0 0 1 1.28-.245l.053-.008a14.12 14.12 0 0 1 1.412-.118l.47-.017C50.11 19.002 54 21.29 54 24zm-.065 24.578c-.017.084-.042.167-.067.251-.023.078-.045.156-.074.232a3.517 3.517 0 0 1-.11.244c-.036.075-.07.15-.112.224a3.677 3.677 0 0 1-.149.234c-.048.072-.094.145-.148.215a3.93 3.93 0 0 1-.188.225c-.059.068-.115.137-.179.203-.071.074-.149.145-.226.216-.068.064-.134.128-.207.19-.082.07-.172.136-.26.203-.078.059-.153.119-.235.177-.093.065-.193.126-.292.188-.086.055-.17.11-.26.163-.103.06-.212.115-.32.172-.095.05-.187.101-.285.148-.113.054-.232.104-.35.155-.1.044-.198.089-.302.13-.124.049-.255.093-.384.139-.104.037-.205.076-.312.11-.133.043-.273.08-.41.118-.109.031-.215.064-.326.092-.143.036-.291.065-.437.096-.111.024-.219.051-.332.071-.159.029-.322.051-.484.075-.105.016-.209.035-.316.048-.181.022-.366.036-.55.051-.092.008-.182.019-.275.025-.278.018-.56.027-.845.027a13.838 13.838 0 0 1-1.468-.084 13.006 13.006 0 0 1-.953-.136c-.046-.008-.093-.014-.14-.023.039-.249.061-.501.061-.757v-1.2c.07.011.141.015.211.025.27.04.542.073.815.098.113.011.225.023.338.031.377.028.755.046 1.136.046.409 0 .81-.018 1.206-.047.128-.009.251-.025.378-.037.267-.026.531-.056.79-.094.142-.021.281-.046.42-.07a14.064 14.064 0 0 0 1.814-.447c.112-.036.226-.068.335-.106.32-.112.632-.232.93-.364l.036-.014c.309-.138.603-.289.887-.448.091-.051.175-.106.263-.159.189-.114.374-.23.55-.352.094-.066.184-.134.275-.202.161-.121.314-.246.462-.374.044-.039.096-.073.139-.112a2.325 2.325 0 0 1-.015.166c-.01.078-.019.158-.035.238zm-13 0c-.017.084-.042.167-.067.251-.023.078-.045.156-.074.232a3.517 3.517 0 0 1-.11.244c-.036.075-.07.15-.112.224a3.677 3.677 0 0 1-.149.234c-.048.072-.094.145-.148.215a3.93 3.93 0 0 1-.188.225c-.059.068-.115.137-.179.203-.071.074-.149.145-.226.216-.068.064-.134.128-.207.19-.082.07-.172.136-.26.203-.078.059-.153.119-.235.177-.093.065-.193.126-.292.188-.086.055-.17.11-.26.163-.103.06-.212.115-.32.172-.095.05-.187.101-.285.148-.113.054-.232.104-.35.155-.1.044-.198.089-.302.13-.124.049-.255.093-.384.139-.104.037-.205.076-.312.11-.133.043-.273.08-.41.118-.109.031-.215.064-.326.092-.143.036-.291.065-.437.096-.111.024-.219.051-.332.071-.159.029-.322.051-.484.075-.105.016-.209.035-.316.048-.181.022-.366.036-.55.051-.092.008-.182.019-.275.025a13.083 13.083 0 0 1-1.691.001c-.093-.006-.183-.017-.275-.025-.185-.015-.37-.029-.55-.051-.107-.013-.21-.032-.316-.048-.162-.024-.325-.046-.484-.075-.112-.021-.22-.048-.331-.071-.147-.031-.295-.061-.439-.097-.111-.028-.216-.061-.324-.091-.138-.039-.278-.076-.412-.119-.107-.034-.208-.073-.312-.11-.129-.046-.259-.089-.384-.139-.104-.041-.201-.087-.302-.13-.117-.051-.237-.101-.35-.155-.098-.047-.19-.099-.285-.148-.108-.057-.217-.112-.32-.172-.09-.052-.174-.108-.26-.163-.098-.062-.199-.123-.292-.188-.082-.057-.157-.117-.235-.177-.088-.067-.178-.133-.26-.203-.073-.062-.139-.126-.207-.19-.077-.071-.155-.142-.226-.216-.063-.066-.12-.135-.178-.202-.064-.075-.13-.149-.188-.226-.053-.07-.099-.142-.147-.214-.052-.078-.105-.156-.15-.235-.042-.073-.076-.149-.112-.224a3.517 3.517 0 0 1-.11-.244c-.029-.076-.051-.154-.074-.232-.025-.083-.05-.166-.067-.251-.016-.079-.025-.16-.035-.24a3.01 3.01 0 0 1-.015-.166c.043.039.094.074.138.112.148.129.302.254.463.375.09.068.18.136.274.201.176.123.361.239.551.353.088.053.172.108.263.159.284.159.578.31.887.448l.033.013c.3.133.612.254.933.365.109.038.223.07.335.106.23.073.463.143.703.206a15.832 15.832 0 0 0 1.111.24 13.615 13.615 0 0 0 1.21.164c.126.012.25.028.377.037a15.512 15.512 0 0 0 2.414.002c.128-.009.251-.025.378-.037.267-.026.531-.056.79-.094.142-.021.281-.046.42-.07a14.064 14.064 0 0 0 1.814-.447c.112-.036.226-.068.335-.106.32-.112.632-.232.93-.364l.036-.014c.309-.138.603-.289.887-.448.091-.051.175-.106.263-.159.189-.114.374-.23.55-.352.094-.066.184-.134.275-.202.161-.121.314-.246.462-.374.044-.039.096-.073.139-.112a2.325 2.325 0 0 1-.015.166c-.01.078-.019.158-.035.238zM10 19.213v-6.232A6.51 6.51 0 0 0 15.981 7h8.037a6.511 6.511 0 0 0 5.981 5.981v6.232l-.046-.043c-.168-.17-.348-.327-.525-.488-.171-.157-.337-.32-.514-.468-.065-.054-.135-.1-.201-.152a13.867 13.867 0 0 0-7.189-2.975c-.033-.004-.064-.011-.097-.015a14.337 14.337 0 0 0-2.855 0c-.033.003-.064.011-.097.015a13.858 13.858 0 0 0-7.189 2.975c-.066.052-.136.099-.201.152-.178.148-.344.311-.514.468-.176.161-.357.318-.525.488l-.046.043zm24.121 11.884l.045.004c.528.065 1.047.161 1.556.287a11.323 11.323 0 0 1 1.823.625c.102.045.208.088.306.136a8.5 8.5 0 0 1 .784.436c.056.034.109.07.163.105a6.138 6.138 0 0 1 1.36 1.191l.031.037c.121.15.227.302.32.455l.033.052c.086.145.155.292.217.439.012.029.027.056.038.085.053.138.09.277.122.417.008.036.022.072.029.108.034.176.052.35.052.526 0 2.71-3.893 5-8.5 5S24 38.71 24 36c0-.435.11-.857.298-1.263.274-.594.741-1.156 1.367-1.658l.123-.096c.175-.134.363-.263.561-.387C27.911 31.622 30.106 31 32.5 31c.546 0 1.087.034 1.621.097zm3.496-2.438c.09.068.18.136.274.201.176.123.361.239.551.353.088.053.172.108.263.159.284.159.578.31.887.448l.033.013c.3.133.612.254.933.365.109.038.223.07.335.106.23.073.463.143.703.206a15.832 15.832 0 0 0 1.111.24 13.615 13.615 0 0 0 1.21.164c.126.012.25.028.377.037a15.42 15.42 0 0 0 2.412.002c.128-.009.251-.025.378-.037.267-.026.531-.056.79-.094.142-.021.281-.046.42-.07a14.064 14.064 0 0 0 1.814-.447c.112-.036.226-.068.335-.106.32-.112.632-.232.93-.364l.036-.014c.309-.138.603-.289.887-.448.091-.051.175-.106.263-.159.189-.114.374-.23.55-.352.094-.066.184-.134.275-.202.161-.121.314-.246.462-.374.044-.039.096-.073.139-.112a2.325 2.325 0 0 1-.015.166c-.01.08-.018.161-.035.24-.017.084-.042.167-.067.251-.023.078-.045.156-.074.232a3.517 3.517 0 0 1-.11.244c-.036.075-.07.15-.112.224a3.677 3.677 0 0 1-.149.234c-.048.072-.094.145-.148.215a3.93 3.93 0 0 1-.188.225c-.059.068-.115.137-.179.203-.071.074-.149.145-.226.216-.068.064-.134.128-.207.19-.082.07-.172.136-.26.203-.078.059-.153.119-.235.177-.093.065-.193.126-.292.188-.086.055-.17.11-.26.163-.103.06-.212.115-.32.172-.095.05-.187.101-.285.148-.113.054-.232.104-.35.155-.1.044-.198.089-.302.13-.124.049-.255.093-.384.139-.104.037-.205.076-.312.11-.133.043-.273.08-.41.118-.109.031-.215.064-.326.092-.143.036-.291.065-.437.096-.111.024-.219.051-.332.071-.159.029-.322.051-.484.075-.105.016-.209.035-.316.048-.181.022-.366.036-.55.051-.092.008-.182.019-.275.025a14.07 14.07 0 0 1-1.915-.017c-.113-.009-.223-.026-.335-.037-.24-.024-.479-.049-.714-.085-.131-.02-.258-.049-.388-.073-.211-.039-.423-.078-.629-.128-.132-.032-.26-.071-.389-.106a11.296 11.296 0 0 1-.44-.13c-.934-1.056-2.267-1.926-3.88-2.521-.397-.554-.616-1.129-.65-1.714.046.042.101.079.149.121.148.128.302.253.463.374zm15.492 4.202c.094-.066.184-.134.275-.202.161-.121.314-.246.462-.374.044-.039.096-.073.139-.112a2.325 2.325 0 0 1-.015.166c-.01.08-.018.161-.035.24-.017.084-.042.167-.067.251-.023.078-.045.156-.074.232a3.517 3.517 0 0 1-.11.244c-.036.075-.07.15-.112.224a3.677 3.677 0 0 1-.149.234c-.048.072-.094.145-.148.215a3.93 3.93 0 0 1-.188.225c-.059.068-.115.137-.179.203-.071.074-.149.145-.226.216-.068.064-.134.128-.207.19-.082.07-.172.136-.26.203-.078.059-.153.119-.235.177-.093.065-.193.126-.292.188-.086.055-.17.11-.26.163-.103.06-.212.115-.32.172-.095.05-.187.101-.285.148-.113.054-.232.104-.35.155-.1.044-.198.089-.302.13-.124.049-.255.093-.384.139-.104.037-.205.076-.312.11-.133.043-.273.08-.41.118-.109.031-.215.064-.326.092-.143.036-.291.065-.437.096-.111.024-.219.051-.332.071-.159.029-.322.051-.484.075-.105.016-.209.035-.316.048-.181.022-.366.036-.55.051-.092.008-.182.019-.275.025-.278.017-.56.026-.845.026a13.71 13.71 0 0 1-1.494-.09c-.147-.016-.293-.04-.439-.061-.191-.027-.378-.069-.567-.105V36c0-.219-.018-.438-.048-.656-.018-.137-.05-.27-.08-.405-.012-.055-.018-.11-.032-.164l.069.009c.283.047.572.078.86.11.142.016.281.039.424.051a15.774 15.774 0 0 0 2.513.008c.128-.009.251-.025.378-.037.267-.026.531-.056.79-.094.142-.021.281-.046.42-.07a14.064 14.064 0 0 0 1.814-.447c.112-.036.226-.068.335-.106.32-.112.632-.232.93-.364l.036-.014c.309-.138.603-.289.887-.448.091-.051.175-.106.263-.159.189-.114.374-.231.55-.353zm0 4c.094-.066.184-.134.275-.202.161-.121.314-.246.462-.374.044-.039.096-.073.139-.112a2.325 2.325 0 0 1-.015.166c-.01.08-.018.161-.035.24-.017.084-.042.167-.067.251-.023.078-.045.156-.074.232a3.517 3.517 0 0 1-.11.244c-.036.075-.07.15-.112.224a3.677 3.677 0 0 1-.149.234c-.048.072-.094.145-.148.215a3.93 3.93 0 0 1-.188.225c-.059.068-.115.137-.179.203-.071.074-.149.145-.226.216-.068.064-.134.128-.207.19-.082.07-.172.136-.26.203-.078.059-.153.119-.235.177-.093.065-.193.126-.292.188-.086.055-.17.11-.26.163-.103.06-.212.115-.32.172-.095.05-.187.101-.285.148-.113.054-.232.104-.35.155-.1.044-.198.089-.302.13-.124.049-.255.093-.384.139-.104.037-.205.076-.312.11-.133.043-.273.08-.41.118-.109.031-.215.064-.326.092-.143.036-.291.065-.437.096-.111.024-.219.051-.332.071-.159.029-.322.051-.484.075-.105.016-.209.035-.316.048-.181.022-.366.036-.55.051-.092.008-.182.019-.275.025-.278.017-.56.026-.845.026a13.71 13.71 0 0 1-1.494-.09c-.147-.016-.293-.04-.439-.061-.191-.027-.378-.069-.567-.105V38.8c.07.011.141.015.211.025.27.04.542.073.815.098.113.011.225.023.338.031.377.028.755.046 1.136.046.409 0 .81-.018 1.206-.047.128-.009.251-.025.378-.037.267-.026.531-.056.79-.094.142-.021.281-.046.42-.07a14.064 14.064 0 0 0 1.814-.447c.112-.036.226-.068.335-.106.32-.112.632-.232.93-.364l.036-.014c.309-.138.603-.289.887-.448.091-.051.175-.106.263-.159.189-.114.374-.231.55-.353zm0 4c.094-.066.184-.134.275-.202.161-.121.314-.246.462-.374.044-.039.096-.073.139-.112a2.325 2.325 0 0 1-.015.166c-.01.08-.018.161-.035.24-.017.084-.042.167-.067.251-.023.078-.045.156-.074.232a3.517 3.517 0 0 1-.11.244c-.036.075-.07.15-.112.224a3.677 3.677 0 0 1-.149.234c-.048.072-.094.145-.148.215a3.93 3.93 0 0 1-.188.225c-.059.068-.115.137-.179.203-.071.074-.149.145-.226.216-.068.064-.134.128-.207.19-.082.07-.172.136-.26.203-.078.059-.153.119-.235.177-.093.065-.193.126-.292.188-.086.055-.17.11-.26.163-.103.06-.212.115-.32.172-.095.05-.187.101-.285.148-.113.054-.232.104-.35.155-.1.044-.198.089-.302.13-.124.049-.255.093-.384.139-.104.037-.205.076-.312.11-.133.043-.273.08-.41.118-.109.031-.215.064-.326.092-.143.036-.291.065-.437.096-.111.024-.219.051-.332.071-.159.029-.322.051-.484.075-.105.016-.209.035-.316.048-.181.022-.366.036-.55.051-.092.008-.182.019-.275.025-.278.017-.56.026-.845.026a13.71 13.71 0 0 1-1.494-.09c-.147-.016-.293-.04-.439-.061-.191-.027-.378-.069-.567-.105V42.8c.07.011.141.015.211.025.27.04.542.073.815.098.113.011.225.023.338.031.377.028.755.046 1.136.046.409 0 .81-.018 1.206-.047.128-.009.251-.025.378-.037.267-.026.531-.056.79-.094.142-.021.281-.046.42-.07a14.064 14.064 0 0 0 1.814-.447c.112-.036.226-.068.335-.106.32-.112.632-.232.93-.364l.036-.014c.309-.138.603-.289.887-.448.091-.051.175-.106.263-.159.189-.114.374-.231.55-.353zm0 4c.094-.066.184-.134.275-.202.161-.121.314-.246.462-.374.044-.039.096-.073.139-.112a2.325 2.325 0 0 1-.015.166c-.01.08-.018.161-.035.24-.017.084-.042.167-.067.251-.023.078-.045.156-.074.232a3.517 3.517 0 0 1-.11.244c-.036.075-.07.15-.112.224a3.677 3.677 0 0 1-.149.234c-.048.072-.094.145-.148.215a3.93 3.93 0 0 1-.188.225c-.059.068-.115.137-.179.203-.071.074-.149.145-.226.216-.068.064-.134.128-.207.19-.082.07-.172.136-.26.203-.078.059-.153.119-.235.177-.093.065-.193.126-.292.188-.086.055-.17.11-.26.163-.103.06-.212.115-.32.172-.095.05-.187.101-.285.148-.113.054-.232.104-.35.155-.1.044-.198.089-.302.13-.124.049-.255.093-.384.139-.104.037-.205.076-.312.11-.133.043-.273.08-.41.118-.109.031-.215.064-.326.092-.143.036-.291.065-.437.096-.111.024-.219.051-.332.071-.159.029-.322.051-.484.075-.105.016-.209.035-.316.048-.181.022-.366.036-.55.051-.092.008-.182.019-.275.025-.278.017-.56.026-.845.026a13.71 13.71 0 0 1-1.494-.09c-.147-.016-.293-.04-.439-.061-.191-.027-.378-.069-.567-.105V46.8c.07.011.141.015.211.025.27.04.542.073.815.098.113.011.225.023.338.031.377.028.755.046 1.136.046.409 0 .81-.018 1.206-.047.128-.009.251-.025.378-.037.267-.026.531-.056.79-.094.142-.021.281-.046.42-.07a14.064 14.064 0 0 0 1.814-.447c.112-.036.226-.068.335-.106.32-.112.632-.232.93-.364l.036-.014c.309-.138.603-.289.887-.448.091-.051.175-.106.263-.159.189-.114.374-.231.55-.353zm-12.174-.283c-.017.084-.042.167-.067.251-.023.078-.045.156-.074.232a3.517 3.517 0 0 1-.11.244c-.036.075-.07.15-.112.224a3.677 3.677 0 0 1-.149.234c-.048.072-.094.145-.148.215a3.93 3.93 0 0 1-.188.225c-.059.068-.115.137-.179.203-.071.074-.149.145-.226.216-.068.064-.134.128-.207.19-.082.07-.172.136-.26.203-.078.059-.153.119-.235.177-.093.065-.193.126-.292.188-.086.055-.17.11-.26.163-.103.06-.212.115-.32.172-.095.05-.187.101-.285.148-.113.054-.232.104-.35.155-.1.044-.198.089-.302.13-.124.049-.255.093-.384.139-.104.037-.205.076-.312.11-.133.043-.273.08-.41.118-.109.031-.215.064-.326.092-.143.036-.291.065-.437.096-.111.024-.219.051-.332.071-.159.029-.322.051-.484.075-.105.016-.209.035-.316.048-.181.022-.366.036-.55.051-.092.008-.182.019-.275.025a13.083 13.083 0 0 1-1.691.001c-.093-.006-.183-.017-.275-.025-.185-.015-.37-.029-.55-.051-.107-.013-.21-.032-.316-.048-.162-.024-.325-.046-.484-.075-.112-.021-.22-.048-.331-.071-.147-.031-.295-.061-.439-.097-.111-.028-.216-.061-.324-.091-.138-.039-.278-.076-.412-.119-.107-.034-.208-.073-.312-.11-.129-.046-.259-.089-.384-.139-.104-.041-.201-.087-.302-.13-.117-.051-.237-.101-.35-.155-.098-.047-.19-.099-.285-.148-.108-.057-.217-.112-.32-.172-.09-.052-.174-.108-.26-.163-.098-.062-.199-.123-.292-.188-.082-.057-.157-.117-.235-.177-.088-.067-.178-.133-.26-.203-.073-.062-.139-.126-.207-.19-.077-.071-.155-.142-.226-.216-.063-.066-.12-.135-.178-.202-.064-.075-.13-.149-.188-.226-.053-.07-.099-.142-.147-.214-.052-.078-.105-.156-.15-.235-.042-.073-.076-.149-.112-.224a3.517 3.517 0 0 1-.11-.244c-.029-.076-.051-.154-.074-.232-.025-.083-.05-.166-.067-.251-.016-.079-.025-.16-.035-.24a3.01 3.01 0 0 1-.015-.166c.043.039.094.074.138.112.148.129.302.254.463.375.09.068.18.136.274.201.176.123.361.239.551.353.088.053.172.108.263.159.284.159.578.31.887.448l.033.013c.3.133.612.254.933.365.109.038.223.07.335.106.23.073.463.143.703.206a15.832 15.832 0 0 0 1.111.24 13.615 13.615 0 0 0 1.21.164c.126.012.25.028.377.037a15.512 15.512 0 0 0 2.414.002c.128-.009.251-.025.378-.037.267-.026.531-.056.79-.094.142-.021.281-.046.42-.07a14.064 14.064 0 0 0 1.814-.447c.112-.036.226-.068.335-.106.32-.112.632-.232.93-.364l.036-.014c.309-.138.603-.289.887-.448.091-.051.175-.106.263-.159.189-.114.374-.23.55-.352.094-.066.184-.134.275-.202.161-.121.314-.246.462-.374.044-.039.096-.073.139-.112a2.325 2.325 0 0 1-.015.166c-.01.078-.019.158-.035.238zm-19.741-3.649A11.71 11.71 0 0 1 20 41c-.472 0-.938-.035-1.399-.089-.148-.017-.294-.045-.44-.067a11.888 11.888 0 0 1-1.42-.306c-.29-.082-.575-.178-.857-.281-.15-.055-.303-.104-.451-.165a11.634 11.634 0 0 1-1.167-.554c-.116-.064-.225-.139-.339-.206a12.217 12.217 0 0 1-.815-.521c-.133-.094-.261-.193-.39-.292a12.314 12.314 0 0 1-.749-.624c-.092-.083-.186-.164-.275-.25-.203-.196-.39-.411-.58-.622l3.09-3.396c.418-.458.989-.691 1.478-.603.046.008.092.018.138.03.151.118.476.416.698.621.545.503.901.821 1.189 1.015.565 1.088 1.348 1.52 1.929 1.688.704.204 1.495.141 2.359-.171v4.601c-.108.018-.215.042-.323.057-.16.024-.322.047-.482.064zM8.056 27.9c.008-.092.019-.183.029-.274.036-.316.083-.628.143-.936.009-.047.015-.094.025-.14.074-.354.165-.703.269-1.045.022-.072.048-.143.071-.215.087-.266.183-.527.288-.785.039-.096.077-.192.118-.286.119-.272.248-.538.385-.799.072-.135.149-.267.226-.4.084-.145.171-.287.261-.428l.007-.01 2.885 3.166c.738.811 1.719 1.245 2.7 1.25a3.398 3.398 0 0 0 1.057-.184c.415-.144.693-.472.987-.819.496-.581.892-.995 1.493-.995a3.99 3.99 0 0 1 2.689 1.045l1.07 1.101.502-1.42c.24-.298 1.368-.692 2.058-.77.389 1.047 1.076 3.568-.146 5.992-.069.045-.139.089-.206.135-.123.084-.237.172-.354.26-.102.077-.206.152-.303.232-.111.092-.213.189-.317.284-.09.083-.183.163-.267.249-.099.1-.187.205-.278.309-.077.087-.158.173-.229.263-.086.108-.16.221-.237.333-.063.091-.131.18-.188.273-.073.119-.133.242-.196.363l-.012.023c-.995.652-1.863.938-2.389.783-.121-.035-.486-.14-.804-.889l-.229-.538-.402-.045c-.211-.158-.624-.539-.885-.779-.697-.641-.993-.906-1.325-1.018a3.459 3.459 0 0 0-.521-.132c-1.181-.208-2.415.252-3.301 1.227l-2.852 3.135-.007-.009a13.236 13.236 0 0 1-.498-.851 11.412 11.412 0 0 1-.372-.772c-.043-.097-.081-.196-.121-.294a12.203 12.203 0 0 1-.285-.777c-.024-.073-.05-.146-.073-.22a12.074 12.074 0 0 1-.269-1.043c-.01-.047-.016-.095-.025-.142-.06-.307-.107-.62-.143-.935-.01-.091-.021-.182-.029-.274C8.023 29.737 8 29.371 8 29s.023-.737.056-1.1zm16.561 12.759c.09.068.18.136.274.201.176.123.361.239.551.353.088.053.172.108.263.159.284.159.578.31.887.448l.033.013c.3.133.612.254.933.365.109.038.223.07.335.106.23.073.463.143.703.206a15.832 15.832 0 0 0 1.111.24 13.615 13.615 0 0 0 1.21.164c.126.012.25.028.377.037a15.42 15.42 0 0 0 2.412.002c.128-.009.251-.025.378-.037.267-.026.531-.056.79-.094.142-.021.281-.046.42-.07a14.064 14.064 0 0 0 1.814-.447c.112-.036.226-.068.335-.106.32-.112.632-.232.93-.364l.036-.014c.309-.138.603-.289.887-.448.091-.051.175-.106.263-.159.189-.114.374-.23.55-.352.094-.066.184-.134.275-.202.161-.121.314-.246.462-.374.044-.039.096-.073.139-.112a2.325 2.325 0 0 1-.015.166c-.01.08-.018.161-.035.24-.017.084-.042.167-.067.251-.023.078-.045.156-.074.232a3.517 3.517 0 0 1-.11.244c-.036.075-.07.15-.112.224a3.677 3.677 0 0 1-.149.234c-.048.072-.094.145-.148.215a3.93 3.93 0 0 1-.188.225c-.059.068-.115.137-.179.203-.071.074-.149.145-.226.216-.068.064-.134.128-.207.19-.082.07-.172.136-.26.203-.078.059-.153.119-.235.177-.093.065-.193.126-.292.188-.086.055-.17.11-.26.163-.103.06-.212.115-.32.172-.095.05-.187.101-.285.148-.113.054-.232.104-.35.155-.1.044-.198.089-.302.13-.124.049-.255.093-.384.139-.104.037-.205.076-.312.11-.133.043-.273.08-.41.118-.109.031-.215.064-.326.092-.143.036-.291.065-.437.096-.111.024-.219.051-.332.071-.159.029-.322.051-.484.075-.105.016-.209.035-.316.048-.181.022-.366.036-.55.051-.092.008-.182.019-.275.025a14.707 14.707 0 0 1-1.691-.001c-.093-.006-.183-.017-.275-.025-.185-.015-.37-.029-.55-.051-.107-.013-.21-.032-.316-.048-.162-.024-.325-.046-.484-.075-.112-.021-.22-.048-.331-.071-.147-.031-.295-.061-.439-.097-.111-.028-.216-.061-.324-.091-.138-.039-.278-.076-.412-.119-.107-.034-.208-.073-.312-.11-.129-.046-.259-.089-.384-.139-.104-.041-.201-.087-.302-.13-.117-.051-.237-.101-.35-.155-.098-.047-.19-.099-.285-.148-.108-.057-.217-.112-.32-.172-.09-.052-.174-.108-.26-.163-.098-.062-.199-.123-.292-.188-.082-.057-.157-.117-.235-.177-.088-.067-.178-.133-.26-.203-.073-.062-.139-.126-.207-.19-.077-.071-.155-.142-.226-.216-.063-.066-.12-.135-.178-.202-.064-.075-.13-.149-.188-.226-.053-.07-.099-.142-.147-.214-.052-.078-.105-.156-.15-.235-.042-.073-.076-.149-.112-.224a3.517 3.517 0 0 1-.11-.244c-.029-.076-.051-.154-.074-.232-.025-.083-.05-.166-.067-.251-.016-.079-.025-.16-.035-.24a3.01 3.01 0 0 1-.015-.166c.043.039.094.074.138.112.15.129.304.254.465.375zm6.575-11.602a18.829 18.829 0 0 0-1.032.115 14.47 14.47 0 0 0-.527.088c-.156.029-.312.057-.465.091-.171.037-.338.078-.504.121a11.69 11.69 0 0 0-.923.27l-.053.017c.678-3.266-.726-6.071-.8-6.216l-.196-.382-.412-.121c-.859-.251-2.836.118-4.011.934A5.965 5.965 0 0 0 19 23c-1.573 0-2.514 1.108-3.018 1.704-.082.096-.151.185-.218.252a1.393 1.393 0 0 1-.333.043c-.429-.015-.838-.211-1.189-.597l-3.122-3.426c.19-.211.376-.426.579-.621.089-.086.183-.167.275-.25.241-.219.492-.426.749-.624.129-.099.257-.198.39-.292.264-.186.537-.357.815-.521.114-.067.223-.143.339-.206a12.09 12.09 0 0 1 1.167-.554c.147-.061.3-.11.451-.165.282-.103.567-.199.857-.281a11.888 11.888 0 0 1 1.42-.306c.147-.023.292-.05.44-.067.46-.054.926-.089 1.398-.089s.938.035 1.399.089c.148.017.294.045.44.067a11.888 11.888 0 0 1 1.42.306c.29.082.575.178.857.281.15.055.303.104.451.165.399.164.789.347 1.167.554.116.064.225.139.339.206.277.164.551.335.815.521.133.094.261.193.39.292.257.198.507.405.749.624.092.083.186.164.275.25a12.208 12.208 0 0 1 1.828 2.238A11.925 11.925 0 0 1 32 29v.007c-.104.003-.204.014-.308.019-.168.008-.334.018-.5.031zM10 38.787c.013.014.029.025.042.038.35.354.716.691 1.102 1.007.136.112.281.209.421.315.255.193.511.384.779.56.186.122.377.233.569.346a13.03 13.03 0 0 0 2.132 1.024c.205.078.409.158.618.226.295.097.598.175.902.252.188.048.372.105.562.145.48.1.967.178 1.463.228.164.016.331.015.496.025.303.02.605.047.914.047.048 0 .098-.008.147-.009.277-.003.556-.031.835-.051.26-.019.519-.032.782-.067.079-.01.158-.009.237-.02V51h-6.019a6.511 6.511 0 0 0-5.981-5.981v-6.232zM44 2v15.076a15.17 15.17 0 0 0-1 .124V2h1zm-3 0v15.661c-.345.107-.678.225-1 .355V2h1zm-3 0v17.059a8.495 8.495 0 0 0-1 .795V2h1zM5 56V2h30v27.2h-.003a15.907 15.907 0 0 0-1.001-.124c.001-.026.004-.05.004-.076 0-2.624-.739-5.073-2-7.174V10.879l-1.092.1c-.135.012-.27.021-.408.021A4.505 4.505 0 0 1 26 6.5c0-.139.01-.276.021-.412L26.118 5H13.882l.097 1.088c.011.136.021.273.021.412 0 2.481-2.019 4.5-4.5 4.5-.138 0-.273-.009-.408-.021L8 10.879v10.947a14.169 14.169 0 0 0-.859 1.648c-.049.112-.089.228-.135.342-.117.29-.226.582-.322.879-.04.125-.076.251-.113.377a13.497 13.497 0 0 0-.456 2.227c-.015.126-.035.249-.047.376C6.026 28.113 6 28.554 6 29s.026.887.067 1.325c.012.127.032.25.047.376.038.315.084.627.143.937a13.497 13.497 0 0 0 .313 1.29c.037.126.073.252.113.377.096.297.206.589.322.879.046.114.086.23.135.342A14.03 14.03 0 0 0 8 36.174v10.947l1.092-.1c.135-.012.27-.021.408-.021 2.481 0 4.5 2.019 4.5 4.5 0 .139-.01.276-.021.412L13.882 53h8.226c.018.084.04.167.062.25.026.101.053.201.086.3.027.081.059.16.09.24.308.805.812 1.551 1.491 2.21H5zm22.375-.048a10.021 10.021 0 0 1-.697-.349c-.087-.049-.168-.1-.251-.151a7.205 7.205 0 0 1-.657-.449c-.069-.053-.144-.104-.209-.159-.092-.077-.174-.157-.259-.237a5.601 5.601 0 0 1-.233-.228 5.339 5.339 0 0 1-.415-.506c-.049-.069-.099-.139-.143-.209a3.668 3.668 0 0 1-.201-.374c-.022-.046-.049-.09-.068-.137a3.171 3.171 0 0 1-.17-.533c-.01-.046-.012-.094-.02-.14a2.859 2.859 0 0 1-.032-.306c.042.038.092.072.135.11.148.129.302.254.463.375.09.068.18.136.274.201.176.123.361.239.551.353.088.053.172.108.263.159.284.159.578.31.887.448l.033.013c.3.133.612.254.933.365.109.038.223.07.335.106.23.073.463.143.703.206a15.832 15.832 0 0 0 1.111.24 13.615 13.615 0 0 0 1.21.164c.126.012.25.028.377.037a15.375 15.375 0 0 0 2.411.002c.128-.009.251-.025.378-.037.267-.026.531-.056.79-.094.142-.021.281-.046.42-.07a14.064 14.064 0 0 0 1.814-.447c.112-.036.226-.068.335-.106.32-.112.632-.232.93-.364l.036-.014c.309-.138.603-.289.887-.448.091-.051.175-.106.263-.159.189-.114.374-.23.55-.352.094-.066.184-.134.275-.202.161-.121.314-.246.462-.374.043-.038.093-.071.135-.11-.007.103-.014.207-.033.312-.004.026-.006.052-.011.077a3.38 3.38 0 0 1-.171.549l-.002.005c-.27.665-.775 1.291-1.476 1.843l-.06.045a7.45 7.45 0 0 1-.685.465c-.049.03-.094.062-.145.09l-.021.012C36.837 56.452 34.754 57 32.5 57c-1.907 0-3.688-.396-5.125-1.048zM45.5 57c-1.63 0-3.198-.281-4.556-.803.522-.47.961-.985 1.293-1.539l.054.009c.462.098.933.171 1.409.225.105.012.21.021.315.031.49.046.984.077 1.485.077.409 0 .81-.018 1.206-.047.128-.009.251-.025.378-.037.267-.026.531-.056.79-.094.142-.021.281-.046.42-.07a14.064 14.064 0 0 0 1.814-.447c.112-.036.226-.068.335-.106.32-.112.632-.232.93-.364l.036-.014c.309-.138.603-.289.887-.448.091-.051.175-.106.263-.159.189-.114.374-.23.55-.352.094-.066.184-.134.275-.202.161-.121.314-.246.462-.374.048-.042.103-.079.149-.121C53.843 54.802 50.015 57 45.5 57z"></path></svg><svg viewBox="0 0 473.806 473.806" width="473.806" height="473.806" id="phone-call" y="7085"><path d="M374.456 293.506c-9.7-10.1-21.4-15.5-33.8-15.5-12.3 0-24.1 5.3-34.2 15.4l-31.6 31.5c-2.6-1.4-5.2-2.7-7.7-4-3.6-1.8-7-3.5-9.9-5.3-29.6-18.8-56.5-43.3-82.3-75-12.5-15.8-20.9-29.1-27-42.6 8.2-7.5 15.8-15.3 23.2-22.8 2.8-2.8 5.6-5.7 8.4-8.5 21-21 21-48.2 0-69.2l-27.3-27.3c-3.1-3.1-6.3-6.3-9.3-9.5-6-6.2-12.3-12.6-18.8-18.6-9.7-9.6-21.3-14.7-33.5-14.7s-24 5.1-34 14.7l-.2.2-34 34.3c-12.8 12.8-20.1 28.4-21.7 46.5-2.4 29.2 6.2 56.4 12.8 74.2 16.2 43.7 40.4 84.2 76.5 127.6 43.8 52.3 96.5 93.6 156.7 122.7 23 10.9 53.7 23.8 88 26 2.1.1 4.3.2 6.3.2 23.1 0 42.5-8.3 57.7-24.8.1-.2.3-.3.4-.5 5.2-6.3 11.2-12 17.5-18.1 4.3-4.1 8.7-8.4 13-12.9 9.9-10.3 15.1-22.3 15.1-34.6 0-12.4-5.3-24.3-15.4-34.3l-54.9-55.1zm35.8 105.3c-.1 0-.1.1 0 0-3.9 4.2-7.9 8-12.2 12.2-6.5 6.2-13.1 12.7-19.3 20-10.1 10.8-22 15.9-37.6 15.9-1.5 0-3.1 0-4.6-.1-29.7-1.9-57.3-13.5-78-23.4-56.6-27.4-106.3-66.3-147.6-115.6-34.1-41.1-56.9-79.1-72-119.9-9.3-24.9-12.7-44.3-11.2-62.6 1-11.7 5.5-21.4 13.8-29.7l34.1-34.1c4.9-4.6 10.1-7.1 15.2-7.1 6.3 0 11.4 3.8 14.6 7l.3.3c6.1 5.7 11.9 11.6 18 17.9 3.1 3.2 6.3 6.4 9.5 9.7l27.3 27.3c10.6 10.6 10.6 20.4 0 31-2.9 2.9-5.7 5.8-8.6 8.6-8.4 8.6-16.4 16.6-25.1 24.4-.2.2-.4.3-.5.5-8.6 8.6-7 17-5.2 22.7l.3.9c7.1 17.2 17.1 33.4 32.3 52.7l.1.1c27.6 34 56.7 60.5 88.8 80.8 4.1 2.6 8.3 4.7 12.3 6.7 3.6 1.8 7 3.5 9.9 5.3.4.2.8.5 1.2.7 3.4 1.7 6.6 2.5 9.9 2.5 8.3 0 13.5-5.2 15.2-6.9l34.2-34.2c3.4-3.4 8.8-7.5 15.1-7.5 6.2 0 11.3 3.9 14.4 7.3l.2.2 55.1 55.1c10.3 10.2 10.3 20.7.1 31.3zm-154.2-286.1c26.2 4.4 50 16.8 69 35.8s31.3 42.8 35.8 69c1.1 6.6 6.8 11.2 13.3 11.2.8 0 1.5-.1 2.3-.2 7.4-1.2 12.3-8.2 11.1-15.6-5.4-31.7-20.4-60.6-43.3-83.5s-51.8-37.9-83.5-43.3c-7.4-1.2-14.3 3.7-15.6 11s3.5 14.4 10.9 15.6zm217.2 96.3c-8.9-52.2-33.5-99.7-71.3-137.5s-85.3-62.4-137.5-71.3c-7.3-1.3-14.2 3.7-15.5 11-1.2 7.4 3.7 14.3 11.1 15.6 46.6 7.9 89.1 30 122.9 63.7 33.8 33.8 55.8 76.3 63.7 122.9 1.1 6.6 6.8 11.2 13.3 11.2.8 0 1.5-.1 2.3-.2 7.3-1.1 12.3-8.1 11-15.4z"></path></svg><svg viewBox="0 0 477 477" width="477" height="477" id="placeholder" y="7559"><path d="M238.4 0C133 0 47.2 85.8 47.2 191.2c0 12 1.1 24.1 3.4 35.9.1.7.5 2.8 1.3 6.4 2.9 12.9 7.2 25.6 12.8 37.7 20.6 48.5 65.9 123 165.3 202.8 2.5 2 5.5 3 8.5 3s6-1 8.5-3c99.3-79.8 144.7-154.3 165.3-202.8 5.6-12.1 9.9-24.7 12.8-37.7.8-3.6 1.2-5.7 1.3-6.4 2.2-11.8 3.4-23.9 3.4-35.9C429.6 85.8 343.8 0 238.4 0zm161.2 222.4c0 .2-.1.4-.1.6-.1.5-.4 2-.9 4.3v.2c-2.5 11.2-6.2 22.1-11.1 32.6-.1.1-.1.3-.2.4-18.7 44.3-59.7 111.9-148.9 185.6-89.2-73.7-130.2-141.3-148.9-185.6-.1-.1-.1-.3-.2-.4-4.8-10.4-8.5-21.4-11.1-32.6v-.2c-.6-2.3-.8-3.8-.9-4.3 0-.2-.1-.4-.1-.7-2-10.3-3-20.7-3-31.2 0-90.5 73.7-164.2 164.2-164.2s164.2 73.7 164.2 164.2c0 10.6-1 21.1-3 31.3z"></path><path d="M238.4 71.9c-66.9 0-121.4 54.5-121.4 121.4s54.5 121.4 121.4 121.4 121.4-54.5 121.4-121.4S305.3 71.9 238.4 71.9zm0 215.8c-52.1 0-94.4-42.4-94.4-94.4s42.4-94.4 94.4-94.4 94.4 42.4 94.4 94.4-42.3 94.4-94.4 94.4z"></path></svg><svg viewBox="0 0 264.355 264.355" width="264.355" height="264.355" id="posred" y="8036"><path d="M259.081 76.652L205.269 22.84c-3.407-3.407-7.936-5.283-12.754-5.283s-9.347 1.876-12.753 5.283l-12.646 12.645a17.908 17.908 0 0 0-4.203 6.67l-59.168-10.593-.013-.002c-26.604-5.281-52.579 12.015-57.944 38.622l-2.729 13.537c-3.014 14.949 6.697 29.562 21.646 32.576 14.95 3.012 29.563-6.697 32.577-21.646l1.668-8.278 26.533 2.32 69.29 69.29 12.558 12.558a6.53 6.53 0 0 1 0 9.224 6.53 6.53 0 0 1-9.223 0l-33.639-33.639a6 6 0 0 0-8.485 8.485l33.639 33.639a6.48 6.48 0 0 1 1.91 4.612 6.477 6.477 0 0 1-1.91 4.611 6.53 6.53 0 0 1-9.223 0l-33.639-33.639a6 6 0 0 0-8.485 8.485l33.639 33.639a6.529 6.529 0 0 1 0 9.223 6.479 6.479 0 0 1-4.611 1.91 6.48 6.48 0 0 1-4.612-1.91l-33.639-33.639a6 6 0 0 0-8.485 8.485l33.639 33.639a6.53 6.53 0 0 1 0 9.224 6.53 6.53 0 0 1-9.223 0L25.961 113.867 10.243 98.149a6 6 0 0 0-8.485 8.485l15.718 15.718 17.105 17.105-9.429 9.429a16.24 16.24 0 0 0-4.788 11.559c0 4.367 1.7 8.472 4.788 11.559l3.077 3.077a16.225 16.225 0 0 0 9.925 4.707 16.22 16.22 0 0 0 4.707 9.924l3.077 3.078a16.264 16.264 0 0 0 9.923 4.695 16.218 16.218 0 0 0 4.709 9.936l3.077 3.077a16.225 16.225 0 0 0 9.925 4.707 16.225 16.225 0 0 0 4.707 9.925l3.077 3.077c3.187 3.187 7.373 4.78 11.559 4.78s8.372-1.593 11.559-4.78l9.429-9.429 22.595 22.595c3.499 3.499 8.15 5.425 13.097 5.425s9.599-1.927 13.097-5.425c3.314-3.314 5.196-7.667 5.387-12.321 4.655-.191 9.007-2.073 12.322-5.387 3.416-3.416 5.195-7.845 5.38-12.329 4.483-.185 8.913-1.964 12.328-5.379 3.416-3.416 5.195-7.845 5.38-12.329 4.484-.185 8.914-1.964 12.329-5.38 7.222-7.222 7.222-18.972 0-26.194l-8.315-8.315 30.423-30.423 21.156-21.156c7.031-7.033 7.031-18.476-.001-25.508zM33.637 163.518a4.351 4.351 0 0 1 0-6.147l8.842-8.842 9.224 9.224-8.842 8.842a4.352 4.352 0 0 1-6.147 0l-3.077-3.077zm17.709 17.709a4.35 4.35 0 0 1 0-6.146l8.842-8.842 9.224 9.224-8.841 8.842a4.352 4.352 0 0 1-6.147 0l-3.078-3.078zm17.708 17.709c-.821-.821-1.273-1.913-1.273-3.073s.452-2.252 1.273-3.073l8.842-8.842 9.223 9.223-8.842 8.842a4.352 4.352 0 0 1-6.146 0l-3.077-3.077zm26.933 20.786a4.352 4.352 0 0 1-6.147 0l-3.077-3.077a4.351 4.351 0 0 1 0-6.147l8.842-8.842 9.224 9.224-8.842 8.842zm103.029-74.469l-66.592-66.592a5.992 5.992 0 0 0-3.72-1.734L94.651 73.95a6.002 6.002 0 0 0-6.404 4.792l-2.729 13.537c-1.706 8.462-9.974 13.958-18.442 12.253a15.553 15.553 0 0 1-9.946-6.683 15.553 15.553 0 0 1-2.307-11.759l2.729-13.536c4.066-20.169 23.774-33.275 43.951-29.204.042.008.085.017.128.024l58.306 10.439 7.179 7.179 58.081 58.081-26.181 26.18zm51.579-51.579l-16.914 16.914L175.6 52.507a5.998 5.998 0 0 1-1.768-4.269 6 6 0 0 1 1.768-4.269l12.646-12.646c1.14-1.14 2.656-1.768 4.268-1.768s3.128.628 4.269 1.768l53.812 53.812a5.998 5.998 0 0 1 1.768 4.269 6 6 0 0 1-1.768 4.27z"></path><circle cx="236.071" cy="91.787" r="6"></circle></svg><svg viewBox="0 0 60 60" width="60" height="60" id="result" y="8301"><path d="M59 55.5v-39H47v39h-3v-31H32v31h-3v-23H17v23h-3v-14H2v14H1a1 1 0 1 0 0 2h58a1 1 0 1 0 0-2zm-55 0v-12h8v12H4zm15 0v-21h8v21h-8zm15 0v-29h8v29h-8zm15 0v-37h8v37h-8zM8.03 27.83a.995.995 0 0 0 .499-.134l36.269-20.94-2.27 4.99a.999.999 0 0 0 .91 1.414c.38 0 .743-.218.911-.586l3.562-7.83c.011-.025.009-.052.018-.078a.97.97 0 0 0 .044-.16c.005-.028.021-.051.023-.08.001-.012-.004-.022-.003-.034.002-.038-.002-.073-.004-.111a1.006 1.006 0 0 0-.024-.162c-.008-.038-.01-.077-.023-.114-.012-.036-.033-.066-.049-.101-.013-.023-.013-.05-.027-.074-.014-.024-.038-.038-.054-.061-.021-.031-.037-.064-.062-.092-.026-.03-.059-.051-.089-.078a1.033 1.033 0 0 0-.128-.101c-.031-.02-.059-.042-.093-.059-.011-.005-.017-.015-.028-.02-.025-.011-.052-.009-.077-.018a.968.968 0 0 0-.166-.044c-.026-.005-.047-.02-.074-.022l-8.562-.83a.996.996 0 0 0-1.092.898 1 1 0 0 0 .898 1.092l5.456.529-36.266 20.94a1 1 0 0 0 .501 1.866z"></path></svg><svg viewBox="0 0 481.6 481.6" width="481.6" height="481.6" id="share" y="8361"><path d="M381.6 309.4c-27.7 0-52.4 13.2-68.2 33.6l-132.3-73.9c3.1-8.9 4.8-18.5 4.8-28.4 0-10-1.7-19.5-4.9-28.5l132.2-73.8c15.7 20.5 40.5 33.8 68.3 33.8 47.4 0 86.1-38.6 86.1-86.1S429 0 381.5 0s-86.1 38.6-86.1 86.1c0 10 1.7 19.6 4.9 28.5l-132.1 73.8c-15.7-20.6-40.5-33.8-68.3-33.8-47.4 0-86.1 38.6-86.1 86.1s38.7 86.1 86.2 86.1c27.8 0 52.6-13.3 68.4-33.9l132.2 73.9c-3.2 9-5 18.7-5 28.7 0 47.4 38.6 86.1 86.1 86.1s86.1-38.6 86.1-86.1-38.7-86.1-86.2-86.1zm0-282.3c32.6 0 59.1 26.5 59.1 59.1s-26.5 59.1-59.1 59.1-59.1-26.5-59.1-59.1 26.6-59.1 59.1-59.1zM100 299.8c-32.6 0-59.1-26.5-59.1-59.1s26.5-59.1 59.1-59.1 59.1 26.5 59.1 59.1-26.6 59.1-59.1 59.1zm281.6 154.7c-32.6 0-59.1-26.5-59.1-59.1s26.5-59.1 59.1-59.1 59.1 26.5 59.1 59.1-26.5 59.1-59.1 59.1z"></path></svg><svg viewBox="0 0 512 512" width="512" height="512" id="soc-facebook" y="8843"><path d="M134.941 272.691h56.123v231.051a8.256 8.256 0 0 0 8.258 8.258h95.159a8.256 8.256 0 0 0 8.258-8.258V273.78h64.519a8.26 8.26 0 0 0 8.204-7.315l9.799-85.061a8.259 8.259 0 0 0-8.202-9.203h-74.316V118.88c0-16.073 8.654-24.224 25.726-24.224h48.59a8.258 8.258 0 0 0 8.258-8.258V8.319a8.256 8.256 0 0 0-8.258-8.258h-66.965A65.863 65.863 0 0 0 307.027 0c-11.619 0-52.006 2.281-83.909 31.63-35.348 32.524-30.434 71.465-29.26 78.217v62.352H134.94a8.256 8.256 0 0 0-8.258 8.258v83.975a8.26 8.26 0 0 0 8.259 8.259z"></path></svg><svg viewBox="0 0 291.319 291.319" width="291.319" height="291.319" id="soc-instagram" y="9355"><path d="M145.659 0c80.44 0 145.66 65.219 145.66 145.66S226.1 291.319 145.66 291.319 0 226.1 0 145.66 65.21 0 145.659 0z"></path><path d="M195.93 63.708H95.38c-17.47 0-31.672 14.211-31.672 31.672v100.56c0 17.47 14.211 31.672 31.672 31.672h100.56c17.47 0 31.672-14.211 31.672-31.672V95.38c-.001-17.461-14.212-31.672-31.682-31.672zm9.978 18.326l3.587-.009v27.202l-27.402.091-.091-27.202 23.906-.082zm-60.248 36.205c22.732 0 27.42 21.339 27.42 27.429 0 15.103-12.308 27.411-27.42 27.411-15.121 0-27.42-12.308-27.42-27.411-.01-6.09 4.688-27.429 27.42-27.429zm63.99 75.716c0 8.658-7.037 15.704-15.713 15.704H97.073c-8.667 0-15.713-7.037-15.713-15.704v-66.539h22.759c-2.112 5.198-3.305 12.299-3.305 18.253 0 24.708 20.101 44.818 44.818 44.818s44.808-20.11 44.808-44.818c0-5.954-1.193-13.055-3.296-18.253h22.486v66.539h.02z"></path></svg><svg viewBox="0 0 410.155 410.155" width="410.155" height="410.155" id="soc-twitter" y="9647"><path d="M403.632 74.18a162.414 162.414 0 0 1-28.28 9.537 88.177 88.177 0 0 0 23.275-37.067c1.295-4.051-3.105-7.554-6.763-5.385a163.188 163.188 0 0 1-43.235 17.862 11.02 11.02 0 0 1-2.702.336c-2.766 0-5.455-1.027-7.57-2.891-16.156-14.239-36.935-22.081-58.508-22.081-9.335 0-18.76 1.455-28.014 4.325-28.672 8.893-50.795 32.544-57.736 61.724-2.604 10.945-3.309 21.9-2.097 32.56a3.166 3.166 0 0 1-.797 2.481 3.278 3.278 0 0 1-2.753 1.091c-62.762-5.831-119.358-36.068-159.363-85.14-2.04-2.503-5.952-2.196-7.578.593-7.834 13.44-11.974 28.812-11.974 44.454 0 23.972 9.631 46.563 26.36 63.032a79.24 79.24 0 0 1-20.169-7.808c-3.06-1.7-6.825.485-6.868 3.985-.438 35.612 20.412 67.3 51.646 81.569a79.567 79.567 0 0 1-16.786-1.399c-3.446-.658-6.341 2.611-5.271 5.952 10.138 31.651 37.39 54.981 70.002 60.278-27.066 18.169-58.585 27.753-91.39 27.753l-10.227-.006c-3.151 0-5.816 2.054-6.619 5.106-.791 3.006.666 6.177 3.353 7.74 36.966 21.513 79.131 32.883 121.955 32.883 37.485 0 72.549-7.439 104.219-22.109 29.033-13.449 54.689-32.674 76.255-57.141 20.09-22.792 35.8-49.103 46.692-78.201 10.383-27.737 15.871-57.333 15.871-85.589v-1.346c-.001-4.537 2.051-8.806 5.631-11.712a174.776 174.776 0 0 0 35.16-38.591c2.573-3.849-1.485-8.673-5.719-6.795z"></path></svg><svg viewBox="0 0 512 512" width="512" height="512" id="soc-vk" y="10058"><path d="M440.649 295.361c16.984 16.582 34.909 32.182 50.142 50.436 6.729 8.112 13.099 16.482 17.973 25.896 6.906 13.382.651 28.108-11.348 28.907l-74.59-.034c-19.238 1.596-34.585-6.148-47.489-19.302-10.327-10.519-19.891-21.714-29.821-32.588-4.071-4.444-8.332-8.626-13.422-11.932-10.182-6.609-19.021-4.586-24.84 6.034-5.926 10.802-7.271 22.762-7.853 34.8-.799 17.564-6.108 22.182-23.751 22.986-37.705 1.778-73.489-3.926-106.732-22.947-29.308-16.768-52.034-40.441-71.816-67.24-38.513-52.183-68.008-109.525-94.516-168.473-5.967-13.281-1.603-20.41 13.051-20.663 24.333-.473 48.663-.439 73.025-.034 9.89.145 16.437 5.817 20.256 15.16 13.165 32.371 29.274 63.169 49.494 91.716 5.385 7.6 10.876 15.201 18.694 20.55 8.65 5.923 15.236 3.96 19.305-5.676 2.582-6.11 3.713-12.691 4.295-19.234 1.928-22.513 2.182-44.988-1.199-67.422-2.076-14.001-9.962-23.065-23.933-25.714-7.129-1.351-6.068-4.004-2.616-8.073 5.995-7.018 11.634-11.387 22.875-11.387h84.298c13.271 2.619 16.218 8.581 18.035 21.934l.072 93.637c-.145 5.169 2.582 20.51 11.893 23.931 7.452 2.436 12.364-3.526 16.836-8.251 20.183-21.421 34.588-46.737 47.457-72.951 5.711-11.527 10.622-23.497 15.381-35.458 3.526-8.875 9.059-13.242 19.056-13.049l81.132.072c2.406 0 4.84.035 7.17.434 13.671 2.33 17.418 8.211 13.195 21.561-6.653 20.945-19.598 38.4-32.255 55.935-13.53 18.721-28.001 36.802-41.418 55.634-12.328 17.2-11.349 25.868 3.964 40.805z"></path></svg><svg viewBox="0 0 490.727 490.727" width="490.727" height="490.727" id="star" y="10570"><path d="M453.443 160.214l-119.7-8.6c-2.5-.2-4.7-1.7-5.6-4.1l-45.6-111c-6.3-15.3-20.5-24.8-37.1-24.8s-30.7 9.5-37.1 24.9l-45.7 111.1c-1 2.3-3.1 3.9-5.6 4.1l-119.5 8.6c-16.2.9-30 11.5-35.3 27.1-5.4 15.8-.9 32.4 11.9 43.3l92.5 76.4c1.9 1.6 2.8 4.2 2.2 6.6l-28.2 115.4c-3.3 12-1 24.4 6.3 34.1 7.5 9.8 19.2 15.7 31.5 15.7 7.6 0 15-2.3 21.1-6.4l101.1-62.9c2.1-1.3 4.8-1.3 6.9 0l102.1 62.7c6.4 4.3 13.8 6.6 21.3 6.6 11.5 0 22.9-5.5 30.3-14.8 7.7-9.6 10.5-22.1 7.7-34.6l-28.3-115.7c-.6-2.5.3-5.1 2.2-6.7l93.9-76.6c12.6-10.8 17.1-27.4 11.8-43.2-5.2-15.6-19.1-26.3-35.1-27.2zm7.7 51.5l-93.7 76.5c-9.2 7.5-13.4 19.9-10.5 31.5l28.3 115.5c1.5 6.8-1.2 11.5-3 13.7-2.8 3.5-7 5.7-11.2 5.7-2.6 0-5.2-.8-8-2.7l-102.5-63c-4.9-3-10.5-4.6-16.3-4.6s-11.5 1.6-16.4 4.7l-101.5 63.1c-6.5 4.3-15.2 2.4-19.8-3.6-1.9-2.5-3.9-6.8-2.1-13.1l28.3-115.8c2.8-11.5-1.3-23.8-10.4-31.3l-92.3-76.3c-7.3-6.3-5.3-14.4-4.5-16.7s4.1-10 13.7-10.5l119.7-8.6c11.8-.9 22-8.2 26.5-19.2l45.7-111.1c3.7-9 12-9.7 14.4-9.7 2.4 0 10.7.7 14.4 9.7l45.7 111.1c4.5 11 14.7 18.3 26.5 19.2l119.9 8.7c9.4.5 12.7 8.2 13.5 10.5.6 2.1 2.6 10.2-4.4 16.3z"></path></svg><svg viewBox="0 0 58.153 58.153" width="58.153" height="58.153" id="time" y="11061"><path d="M40.076 29.153h-7.142a3.995 3.995 0 0 0-2.858-2.858V16.153a1 1 0 1 0-2 0v10.142c-1.72.447-3 1.999-3 3.858 0 2.206 1.794 4 4 4 1.858 0 3.411-1.28 3.858-3h7.142a1 1 0 1 0 0-2zm-11 3c-1.103 0-2-.897-2-2s.897-2 2-2 2 .897 2 2-.897 2-2 2z"></path><path d="M50.188 9.764l4.096 4.096a1 1 0 0 0 1.414 0c3.167-3.166 3.167-8.319 0-11.485-3.166-3.166-8.319-3.166-11.485 0a.997.997 0 0 0 0 1.414l4.561 4.561-1.699 1.699c-4.78-4.284-11.089-6.896-17.998-6.896s-13.218 2.612-17.998 6.896l-1.7-1.699 4.561-4.561a.997.997 0 0 0 0-1.414c-3.166-3.166-8.319-3.166-11.485 0-3.167 3.166-3.167 8.319 0 11.485a1 1 0 0 0 1.414 0l4.096-4.096 1.676 1.676c-4.679 4.857-7.565 11.453-7.565 18.713 0 9.898 5.357 18.564 13.321 23.265l-3.028 3.028a.999.999 0 1 0 1.414 1.414l3.45-3.45c3.578 1.754 7.597 2.743 11.843 2.743s8.265-.989 11.843-2.743l3.45 3.45a.997.997 0 0 0 1.414 0 .999.999 0 0 0 0-1.414l-3.028-3.028c7.964-4.701 13.321-13.367 13.321-23.265 0-7.26-2.886-13.856-7.565-18.713l1.677-1.676zm4.095-5.975c2.146 2.146 2.362 5.502.649 7.893L46.391 3.14c2.389-1.713 5.746-1.498 7.892.649zM3.22 11.681a6.131 6.131 0 0 1 .649-7.892c2.146-2.146 5.503-2.361 7.892-.649L3.22 11.681zm25.856 43.472c-13.785 0-25-11.215-25-25s11.215-25 25-25 25 11.215 25 25-11.214 25-25 25z"></path><path d="M48.958 18.61a23.164 23.164 0 0 0-8.338-8.338c-.016-.011-.026-.028-.043-.038-.018-.01-.037-.01-.055-.019a22.85 22.85 0 0 0-11.445-3.063 22.84 22.84 0 0 0-11.445 3.063c-.018.009-.038.008-.055.019-.017.01-.026.027-.043.038a23.156 23.156 0 0 0-8.338 8.338c-.011.017-.028.026-.038.043-.01.017-.01.037-.018.055-1.944 3.374-3.063 7.28-3.063 11.445s1.119 8.072 3.063 11.445c.009.018.008.037.018.055.014.025.035.043.051.066a23.175 23.175 0 0 0 8.325 8.315c.016.011.026.028.043.038.026.015.054.021.08.033 3.368 1.935 7.265 3.048 11.42 3.048s8.052-1.113 11.42-3.048c.026-.012.054-.018.08-.033.017-.01.026-.027.043-.038a23.167 23.167 0 0 0 8.325-8.315c.016-.023.037-.041.051-.066.01-.017.01-.037.018-.055 1.944-3.374 3.063-7.28 3.063-11.445s-1.119-8.072-3.063-11.445c-.009-.018-.008-.037-.018-.055-.011-.017-.028-.027-.038-.043zm-8.539 29.189l-.477-.826a1 1 0 1 0-1.732 1l.479.829a20.84 20.84 0 0 1-8.612 2.3v-.949a1 1 0 1 0-2 0v.949a20.825 20.825 0 0 1-8.612-2.3l.479-.829a1 1 0 0 0-1.732-1l-.477.826a21.128 21.128 0 0 1-6.303-6.303l.826-.477a1 1 0 0 0-1-1.732l-.829.479a20.844 20.844 0 0 1-2.3-8.612h.949a1 1 0 1 0 0-2h-.951c.147-3.092.953-6.01 2.3-8.612l.829.479a.997.997 0 0 0 1.366-.366 1 1 0 0 0-.366-1.366l-.826-.479a21.14 21.14 0 0 1 6.303-6.303l.477.826a1.002 1.002 0 0 0 1.366.366 1 1 0 0 0 .366-1.366l-.479-.829a20.84 20.84 0 0 1 8.612-2.3v.949a1 1 0 1 0 2 0v-.949c3.092.146 6.009.953 8.612 2.3l-.479.829a1 1 0 0 0 1.732 1l.477-.826a21.128 21.128 0 0 1 6.303 6.303l-.826.477a1 1 0 0 0 1 1.732l.829-.479a20.844 20.844 0 0 1 2.3 8.612h-.949a1 1 0 1 0 0 2h.949a20.836 20.836 0 0 1-2.3 8.612l-.829-.479a.999.999 0 1 0-1 1.732l.826.477a21.093 21.093 0 0 1-6.301 6.305z"></path></svg><svg viewBox="0 0 503.607 503.607" width="503.607" height="503.607" id="worker" y="11120"><path d="M478.426 417.993c-50.095-26.565-88.52-41.461-122.727-47.172l3.54-4.867c1.679-1.679 2.518-4.197 1.679-6.715l-7.866-31.463c20.804-29.41 33.046-66.178 33.046-101.153v-33.574h25.18c5.036 0 8.393-3.357 8.393-8.393s-3.357-8.393-8.393-8.393h-8.393v-8.393c0-66.308-43.646-122.544-109.115-141.01v-1.68C293.77 11.75 282.859 0 268.59 0h-33.574c-13.43 0-25.18 10.911-25.18 25.18v1.679c-65.469 18.466-109.115 74.702-109.115 141.01v8.393h-8.393c-5.036 0-8.393 3.357-8.393 8.393s3.357 8.393 8.393 8.393h25.18v33.574c0 34.975 12.242 71.743 33.046 101.154l-7.866 31.463c0 1.679 0 5.036 1.679 6.715l3.54 4.867c-34.206 5.712-72.632 20.607-122.727 47.172C9.233 425.548 0 441.495 0 459.121v36.092c0 5.036 3.357 8.393 8.393 8.393h486.82c5.036 0 8.393-3.357 8.393-8.393v-36.092c.001-16.787-10.072-32.734-25.18-41.128zm-231.656-7.769l5.081-11.432 12.545 27.6 8.205 18.46H231.66l15.11-34.628zm-21.49 51.415h52.983l4.796 25.18h-62.815l5.036-25.18zm114.654-117.508l3.357 15.108-8.574 11.773a7.48 7.48 0 0 0-1.498 1.656l-34.912 48.34-11.078 15.211-22.628-50.913c27.048-3.299 51.193-16.877 70.694-36.39.216-.214.433-.426.648-.642l.156-.159a154.457 154.457 0 0 0 3.835-3.984zM328.999 61.389c.932.62 1.856 1.25 2.77 1.892 10.699 7.973 20.575 17.313 28.31 27.368l-38.61 7.554 7.53-36.814zM182.138 98.203l-38.61-7.554c7.735-10.056 17.612-19.396 28.311-27.369.913-.641 1.837-1.271 2.769-1.891l7.53 36.814zm-64.63 69.666c0-22.335 5.623-43.406 15.8-61.82l58.063 11.46h1.679c2.518 0 4.197-.839 6.715-1.679 2.518-1.679 3.357-5.036 2.518-7.554l-11.523-56.08a139.223 139.223 0 0 1 19.077-7.49v22.442c0 5.036 3.357 8.393 8.393 8.393s8.393-3.357 8.393-8.393V25.18c0-4.197 3.357-8.393 8.393-8.393h33.574c4.197 0 8.393 3.357 8.393 8.393v41.967c0 5.036 3.357 8.393 8.393 8.393 5.036 0 8.393-3.357 8.393-8.393V44.706a139.091 139.091 0 0 1 19.685 7.779l-11.291 54.952c0 2.518.839 5.875 2.518 7.554s3.357 2.518 5.875 2.518h1.679l57.687-12.145c10.416 18.576 16.175 39.894 16.175 62.505v8.393H117.509v-8.393zm16.787 25.18h235.016v33.574c0 36.599-12.555 69.122-31.405 93.843l-.49.163-2.518 2.518c-4.223 5.631-8.68 10.765-13.337 15.394-19.763 18.412-43.336 29.564-66.05 30.669-1.143-.491-2.425-.738-3.708-.738-1.29 0-2.453.253-3.496.749-13.904-.638-28.134-5.045-41.623-12.584-13.665-7.851-26.52-19.169-37.977-33.49l-2.518-2.518-.49-.163c-18.85-24.722-31.405-57.245-31.405-93.843v-33.574zm104.71 192.259l-22.628 50.913-11.078-15.211-34.912-48.34a15.02 15.02 0 0 0-.869-.793l-9.203-12.637 3.357-15.108a153.17 153.17 0 0 0 3.457 3.594c19.704 20.151 44.279 34.216 71.876 37.582zM16.787 459.121c0-10.911 5.875-20.984 15.948-26.02 53.501-28.423 92.015-42.688 126.323-46.949l50.088 68.87-6.359 31.796h-186v-27.697zM486.82 486.82H300.821l-6.359-31.796 50.63-69.616c34.188 5.159 73.391 19.413 125.78 46.855 10.072 5.875 15.948 15.948 15.948 26.859v27.698z"></path></svg></svg>